<svg
  xmlns="http://www.w3.org/2000/svg"
  xmlns:xlink="http://www.w3.org/1999/xlink"
  viewBox="0 0 512 512"
  fill="white"
  fill-rule="evenodd"
>
  <path
    d="M497,0H327.283c-13.322,0-20.009,16.17-10.605,25.605l42.451,42.422L233.65,193.491c-5.859,5.859-5.859,15.352,0,21.211 l63.633,63.647c5.856,5.856,15.355,5.856,21.211,0l125.479-125.464l42.422,42.422c9.581,9.549,25.605,2.582,25.605-10.605V15 C512,6.709,505.291,0,497,0z"
  />
  <path
    d="M443.973,195.308L318.494,320.771c-5.856,5.856-15.355,5.856-21.211,0L191.229,214.702 c-5.858-5.859-5.856-15.355,0.002-21.213L316.707,68.027L308.672,60H106c-8.284,0-15,6.714-15,15v346h346c8.284,0,15-6.716,15-15 V203.335L443.973,195.308z"
  />
  <path
    d="M76,451c-8.291,0-15-6.709-15-15V121H15c-8.291,0-15,6.709-15,15v361c0,8.291,6.709,15,15,15h361c8.291,0,15-6.709,15-15 v-46H76z"
  />
</svg>
