<svg
  xmlns="http://www.w3.org/2000/svg"
  xmlns:xlink="http://www.w3.org/1999/xlink"
  viewBox="0 0 512 512"
  fill="white"
  fill-rule="evenodd"
>
  <path
    d="m256 391c-74.441406 0-135-60.558594-135-135s60.558594-135 135-135 135 60.558594 135 135-60.558594 135-135 135zm0 0"
  />
  <path
    d="m256 91c-8.289062 0-15-6.710938-15-15v-61c0-8.289062 6.710938-15 15-15s15 6.710938 15 15v61c0 8.289062-6.710938 15-15 15zm0 0"
  />
  <path
    d="m256 512c-8.289062 0-15-6.710938-15-15v-61c0-8.289062 6.710938-15 15-15s15 6.710938 15 15v61c0 8.289062-6.710938 15-15 15zm0 0"
  />
  <path
    d="m153.007812 107.609375-30-51.957031c-4.148437-7.175782-1.6875-16.347656 5.492188-20.492188 7.132812-4.160156 16.347656-1.699218 20.492188 5.492188l30 51.957031c4.148437 7.179687 1.6875 16.351563-5.492188 20.496094-7.152344 4.128906-16.34375 1.691406-20.492188-5.496094zm0 0"
  />
  <path
    d="m363.007812 471.347656-30-51.957031c-4.148437-7.179687-1.6875-16.351563 5.492188-20.496094 7.117188-4.160156 16.332031-1.699219 20.492188 5.496094l30 51.957031c4.148437 7.175782 1.6875 16.347656-5.492188 20.492188-7.152344 4.132812-16.34375 1.691406-20.492188-5.492188zm0 0"
  />
  <path
    d="m92.609375 178.992188-51.957031-30c-7.175782-4.144532-9.636719-13.3125-5.492188-20.492188 4.144532-7.207031 13.316406-9.667969 20.492188-5.492188l51.957031 30c7.179687 4.144532 9.640625 13.3125 5.496094 20.492188-4.15625 7.195312-13.355469 9.617188-20.496094 5.492188zm0 0"
  />
  <path
    d="m456.347656 388.992188-51.957031-30c-7.179687-4.144532-9.640625-13.3125-5.496094-20.492188 4.148438-7.207031 13.316407-9.640625 20.496094-5.492188l51.957031 30c7.175782 4.144532 9.636719 13.3125 5.492188 20.492188-4.15625 7.195312-13.355469 9.617188-20.492188 5.492188zm0 0"
  />
  <path
    d="m35.160156 383.5c-4.144531-7.179688-1.683594-16.347656 5.492188-20.492188l51.957031-30c7.164063-4.148437 16.335937-1.714843 20.496094 5.492188 4.144531 7.179688 1.683593 16.347656-5.496094 20.492188l-51.957031 30c-7.152344 4.132812-16.34375 1.691406-20.492188-5.492188zm0 0"
  />
  <path
    d="m398.894531 173.5c-4.144531-7.179688-1.683593-16.347656 5.496094-20.492188l51.957031-30c7.117188-4.175781 16.332032-1.714843 20.492188 5.492188 4.144531 7.179688 1.683594 16.347656-5.492188 20.492188l-51.957031 30c-7.15625 4.132812-16.347656 1.691406-20.496094-5.492188zm0 0"
  />
  <path
    d="m128.5 476.839844c-7.179688-4.144532-9.640625-13.316406-5.492188-20.492188l30-51.957031c4.160157-7.195313 13.300782-9.65625 20.492188-5.496094 7.179688 4.148438 9.640625 13.316407 5.492188 20.496094l-30 51.957031c-4.15625 7.195313-13.351563 9.617188-20.492188 5.492188zm0 0"
  />
  <path
    d="m338.5 113.105469c-7.179688-4.148438-9.640625-13.316407-5.492188-20.496094l30-51.957031c4.144532-7.191406 13.328126-9.652344 20.492188-5.492188 7.179688 4.144532 9.640625 13.316406 5.492188 20.492188l-30 51.957031c-4.15625 7.199219-13.351563 9.617187-20.492188 5.496094zm0 0"
  />
  <path
    d="m76 271h-61c-8.289062 0-15-6.710938-15-15s6.710938-15 15-15h61c8.289062 0 15 6.710938 15 15s-6.710938 15-15 15zm0 0"
  />
  <path
    d="m497 271h-61c-8.289062 0-15-6.710938-15-15s6.710938-15 15-15h61c8.289062 0 15 6.710938 15 15s-6.710938 15-15 15zm0 0"
  />
</svg>
