<svg
  xmlns="http://www.w3.org/2000/svg"
  xmlns:xlink="http://www.w3.org/1999/xlink"
  viewBox="0 0 512 512"
  fill="white"
  fill-rule="evenodd"
>
  <path
    d="m52.75 274.875c.391 0 .78.013 1.17.018 10.833-26.464 26.925-50.765 47.754-71.594 41.222-41.222 96.029-63.924 154.326-63.924s113.104 22.702 154.326 63.924c20.829 20.829 36.921 45.13 47.754 71.594.39-.006.779-.018 1.17-.018 15.646 0 30.29 4.367 42.782 11.943-30.791-106.828-129.429-185.193-246.032-185.193s-215.241 78.365-246.032 185.193c12.492-7.576 27.136-11.943 42.782-11.943z"
  />
  <path
    d="m366.364 309.279c-18.664-42.441-61.106-72.154-110.364-72.154s-91.7 29.713-110.364 72.154c13.083 1.634 24.981 7.117 34.526 15.286 12.786-29.217 41.959-49.69 75.838-49.69s63.052 20.473 75.838 49.69c9.545-8.169 21.443-13.652 34.526-15.286z"
  />
  <path
    d="m256 207.125c64 0 118.789 40.16 140.513 96.6 8.568-9.941 19.376-17.703 31.451-22.659-29.389-65.753-95.409-111.691-171.964-111.691s-142.575 45.938-171.964 111.691c12.075 4.956 22.883 12.718 31.451 22.659 21.724-56.44 76.513-96.6 140.513-96.6z"
  />
  <path
    d="m137.437 338.75c-5.728 0-11.209 1.32-16.292 3.926-3.637 1.865-7.878 2.164-11.742.827-3.863-1.336-7.014-4.189-8.724-7.902-8.596-18.665-27.409-30.726-47.93-30.726-29.086 0-52.75 23.663-52.75 52.75s23.664 52.75 52.75 52.75h84.687c19.747 0 35.813-16.065 35.813-35.813s-16.064-35.812-35.812-35.812z"
  />
  <path
    d="m459.25 304.875c-20.521 0-39.334 12.061-47.93 30.726-1.709 3.713-4.86 6.566-8.724 7.902-3.864 1.337-8.104 1.036-11.742-.827-5.083-2.605-10.564-3.926-16.292-3.926-19.747 0-35.813 16.065-35.813 35.813s16.065 35.813 35.813 35.813h84.688c29.086 0 52.75-23.663 52.75-52.75s-23.664-52.751-52.75-52.751z"
  />
</svg>
