<svg
  xmlns="http://www.w3.org/2000/svg"
  xmlns:xlink="http://www.w3.org/1999/xlink"
  viewBox="0 0 512 512"
  fill="white"
  fill-rule="evenodd"
>
  <path
    d="m15 271h32.133c8.284 0 15-6.716 15-15s-6.716-15-15-15h-32.133c-8.284 0-15 6.716-15 15s6.716 15 15 15z"
  />
  <path
    d="m449.866 256c0 8.284 6.716 15 15 15h32.134c8.284 0 15-6.716 15-15s-6.716-15-15-15h-32.134c-8.284 0-15 6.716-15 15z"
  />
  <path
    d="m39.788 148.486 27.796 16.066c7.949 4.598 16.833.852 20.493-5.479 4.146-7.173 1.692-16.348-5.48-20.493l-27.797-16.066c-7.172-4.148-16.348-1.691-20.493 5.479-4.145 7.173-1.692 16.348 5.481 20.493z"
  />
  <path
    d="m138.577 82.616c3.486 6.039 12.24 10.256 20.49 5.49 7.174-4.143 9.632-13.316 5.49-20.49l-16.067-27.828c-4.142-7.174-13.316-9.634-20.49-5.49-7.174 4.143-9.632 13.316-5.49 20.49z"
  />
  <path
    d="m352.934 88.106c7.935 4.583 16.832.845 20.49-5.49l16.066-27.828c4.143-7.175 1.685-16.349-5.49-20.49-7.175-4.144-16.348-1.684-20.49 5.49l-16.066 27.828c-4.143 7.175-1.685 16.349 5.49 20.49z"
  />
  <path
    d="m444.32 164.563 27.877-16.066c7.178-4.137 9.643-13.309 5.506-20.486-4.136-7.178-13.309-9.644-20.486-5.506l-27.877 16.065c-7.178 4.137-9.643 13.309-5.506 20.486 3.49 6.057 12.245 10.258 20.486 5.507z"
  />
  <path
    d="m256 62.134c8.284 0 15-6.716 15-15v-32.134c0-8.284-6.716-15-15-15s-15 6.716-15 15v32.134c0 8.284 6.716 15 15 15z"
  />
  <path
    d="m105.375 272.972c15.473 0 30.799 2.633 45.235 7.707 29.459-24.348 66.162-37.545 105.39-37.545 39.229 0 75.932 13.197 105.39 37.545 14.437-5.074 29.763-7.707 45.235-7.707 2.702 0 5.384.088 8.048.244.607-5.656.927-11.399.927-17.216 0-88.145-71.455-159.6-159.6-159.6s-159.6 71.455-159.6 159.6c0 5.818.32 11.56.927 17.216 2.664-.156 5.346-.244 8.048-.244z"
  />
  <path
    d="m406.625 302.972c-18.19 0-35.665 4.521-51.256 13.181-25.609-27.497-61.117-43.019-99.369-43.019s-73.759 15.521-99.369 43.019c-15.592-8.659-33.066-13.181-51.256-13.181-58.104 0-105.375 46.884-105.375 104.514 0 57.629 47.271 104.514 105.375 104.514h301.25c58.104 0 105.375-46.885 105.375-104.514 0-57.63-47.271-104.514-105.375-104.514z"
  />
</svg>
