<?xml version="1.0" standalone="no"?>
<!DOCTYPE svg PUBLIC "-//W3C//DTD SVG 20010904//EN"
 "http://www.w3.org/TR/2001/REC-SVG-20010904/DTD/svg10.dtd">
<svg version="1.0" xmlns="http://www.w3.org/2000/svg"
 width="1200.000000pt" height="1200.000000pt" viewBox="0 0 1200.000000 1200.000000"
 preserveAspectRatio="xMidYMid meet">
<metadata>
Created by potrace 1.14, written by Peter Selinger 2001-2017
</metadata>
<g transform="translate(0.000000,1200.000000) scale(0.100000,-0.100000)"
fill="#000000" stroke="none">
<path d="M5080 11716 c-87 -32 -364 -244 -354 -271 3 -7 18 -15 32 -17 16 -2
28 -10 30 -21 5 -24 -26 -57 -53 -57 -25 0 -55 -29 -55 -53 0 -26 -44 -50 -78
-43 -42 10 -235 -46 -270 -77 -24 -22 -30 -21 -28 1 1 12 -7 18 -26 20 -21 2
-37 -6 -66 -35 -22 -21 -45 -49 -52 -62 -11 -22 -10 -26 14 -44 14 -10 26 -23
26 -28 0 -12 -59 -41 -70 -34 -13 8 -13 52 0 60 24 15 8 27 -26 22 -26 -4 -46
-18 -71 -46 -35 -42 -96 -68 -132 -56 -10 3 -31 0 -45 -6 -25 -12 -25 -13 -10
-36 14 -23 14 -26 -2 -37 -10 -8 -35 -11 -58 -9 -35 3 -47 -1 -80 -30 -37 -32
-39 -35 -28 -65 10 -28 9 -32 -7 -32 -12 0 -21 10 -25 26 -6 23 -11 26 -37 20
-51 -10 -241 -127 -317 -195 -108 -97 -192 -199 -192 -233 0 -53 55 -29 79 34
12 31 65 72 145 113 33 16 58 37 62 49 10 33 54 75 93 87 20 6 43 17 51 24 38
31 156 21 129 -11 -6 -7 -8 -22 -4 -34 4 -11 2 -20 -4 -20 -21 0 -26 -2 -39
-13 -22 -18 -43 -78 -40 -116 3 -33 0 -36 -48 -60 -51 -26 -124 -84 -124 -98
0 -11 -128 -143 -138 -143 -17 0 -92 -84 -92 -102 0 -26 -23 -69 -50 -93 -31
-28 -110 -131 -134 -176 -70 -127 -85 -159 -95 -207 -6 -30 -22 -68 -35 -85
-34 -46 -72 -126 -80 -170 -4 -21 -16 -59 -28 -85 -37 -86 -68 -221 -69 -301
0 -89 9 -179 23 -204 5 -10 15 -51 22 -92 13 -75 7 -176 -14 -214 -35 -66 -96
-310 -85 -340 4 -9 1 -88 -6 -176 -12 -158 -8 -236 21 -475 4 -36 15 -131 24
-212 8 -81 25 -189 36 -240 11 -51 25 -138 30 -193 6 -55 15 -120 20 -145 37
-174 51 -264 45 -288 -3 -16 -28 -52 -54 -81 -36 -39 -54 -71 -74 -130 -52
-153 -33 -356 63 -686 50 -175 55 -205 54 -370 -2 -191 -10 -355 -26 -486 -8
-68 -8 -109 -1 -137 8 -31 7 -47 -3 -66 -14 -29 -7 -113 21 -226 9 -36 20
-123 26 -195 29 -402 44 -535 62 -573 8 -15 22 -56 31 -92 53 -192 82 -276
146 -415 10 -22 28 -69 40 -105 12 -36 32 -82 46 -102 13 -21 24 -41 24 -45 0
-4 15 -30 34 -58 18 -27 55 -84 81 -125 26 -41 69 -97 95 -125 26 -27 65 -75
87 -105 23 -30 69 -80 103 -110 34 -30 79 -72 99 -94 20 -21 54 -55 76 -75
115 -105 190 -180 213 -216 25 -38 27 -46 25 -148 -2 -95 -5 -114 -27 -151
-33 -56 -77 -92 -166 -134 -41 -19 -106 -50 -145 -69 -66 -31 -114 -47 -249
-79 -75 -18 -199 -62 -351 -123 -66 -27 -153 -62 -192 -77 -40 -16 -73 -32
-73 -35 0 -8 99 -70 280 -174 200 -116 664 -338 754 -361 l24 -6 5 129 c6 127
18 262 36 398 11 88 49 201 111 330 26 55 50 108 53 118 11 29 22 19 22 -21 1
-46 24 -104 39 -99 18 6 13 137 -7 176 -12 24 -17 58 -17 112 0 112 27 117 74
14 27 -60 102 -160 190 -255 34 -36 88 -103 120 -149 33 -45 84 -106 113 -134
30 -29 73 -78 95 -110 23 -32 68 -77 103 -101 33 -25 102 -83 153 -130 50 -47
96 -86 101 -86 6 0 40 -26 78 -58 63 -53 146 -112 158 -112 2 0 34 -18 69 -40
44 -26 82 -41 118 -46 29 -4 80 -15 113 -26 105 -33 270 -15 475 51 30 10 74
24 98 31 24 8 57 24 74 36 17 13 56 30 87 39 92 28 111 37 161 76 26 21 85 56
131 80 46 23 98 54 116 69 17 15 69 47 116 70 47 24 107 60 134 81 26 21 77
54 113 74 40 23 109 80 180 148 63 62 131 126 150 144 19 17 49 46 66 65 46
49 127 124 145 134 30 16 185 153 293 257 27 27 61 54 75 61 14 8 45 35 68 60
23 25 49 46 58 46 18 0 17 -10 -12 -190 -19 -116 -14 -314 10 -375 8 -22 18
-53 21 -68 4 -15 17 -32 29 -38 24 -11 35 -32 91 -177 60 -154 66 -184 75
-394 l6 -148 150 69 c262 119 577 287 720 384 35 24 36 26 17 36 -12 6 -26 11
-33 11 -6 0 -44 15 -83 34 -39 19 -111 52 -161 74 -49 21 -107 51 -128 65 -21
14 -64 35 -95 47 -31 11 -70 28 -87 37 -58 32 -180 131 -213 172 -18 23 -76
71 -128 108 -56 40 -97 75 -100 88 -3 12 -4 91 -2 174 3 129 6 154 20 162 9 5
28 29 42 53 14 24 44 58 66 76 22 17 65 66 95 108 31 42 78 106 105 142 27 36
73 99 102 140 28 41 54 77 57 80 15 12 81 129 81 143 0 7 13 32 28 53 40 54
202 383 202 409 0 11 13 48 30 83 33 70 90 234 90 259 0 9 9 46 20 82 37 126
73 276 80 341 31 270 34 323 31 620 -1 184 -8 374 -16 456 -14 137 -14 143 5
188 11 25 25 48 30 51 13 8 63 118 88 195 11 36 26 110 32 165 7 55 14 103 16
106 2 4 4 85 5 180 2 154 0 183 -20 249 -23 78 -38 97 -111 144 -34 21 -35 25
-34 79 1 31 6 63 12 70 10 12 29 62 51 137 5 19 17 55 27 80 29 80 75 311 99
499 13 99 17 215 17 450 0 174 -2 343 -5 376 -3 33 -9 216 -15 407 -5 190 -12
350 -15 355 -3 4 -8 33 -11 63 -4 30 -15 87 -26 125 -11 39 -25 90 -31 115
-22 88 -43 138 -155 367 -63 128 -114 236 -114 240 0 5 -12 26 -27 48 -29 42
-153 284 -153 298 0 5 -13 25 -29 45 -16 20 -32 53 -36 72 -14 67 -43 120 -65
120 -24 0 -87 47 -134 100 -17 19 -50 53 -72 76 -23 24 -58 78 -79 122 -30 65
-44 83 -76 101 -22 12 -46 36 -55 53 -13 24 -20 29 -39 24 -21 -5 -27 0 -44
38 -25 54 -48 66 -57 28 -13 -61 -17 -63 -58 -31 -21 16 -26 28 -24 53 3 28 7
31 38 33 19 1 41 2 48 2 24 2 11 21 -28 41 -47 24 -50 24 -50 5 0 -24 -51 -18
-92 10 -45 31 -57 61 -31 80 27 21 42 18 80 -15 41 -37 58 -38 79 -5 16 24 16
26 -10 50 -29 27 -30 48 -4 53 9 2 20 -9 28 -28 8 -18 20 -30 31 -30 18 0 19
6 14 58 -3 31 -5 76 -5 100 1 67 -6 79 -81 123 -65 39 -76 42 -152 45 -45 1
-100 9 -122 17 -27 9 -50 11 -70 5 -19 -5 -40 -4 -57 3 -34 14 -58 6 -58 -20
0 -21 51 -49 128 -70 38 -11 47 -10 77 8 l35 20 56 -30 c138 -72 177 -110 160
-154 -7 -19 -145 -22 -164 -3 -7 7 -41 14 -75 14 -89 2 -162 32 -219 90 -36
36 -48 55 -48 78 0 46 -12 56 -61 56 -24 0 -79 1 -121 3 l-78 2 -45 50 c-50
56 -56 81 -22 94 12 5 30 18 41 29 22 25 16 73 -12 110 l-18 23 -54 -22 c-30
-13 -62 -28 -70 -34 -86 -66 -248 -98 -344 -67 -53 17 -209 1 -262 -26 -81
-41 -283 -63 -334 -37 -30 16 -70 72 -70 99 0 26 -20 19 -56 -19 -18 -19 -42
-35 -53 -35 -12 0 -30 -5 -41 -12 -32 -21 -70 -1 -97 50 -1 2 -17 -1 -35 -6
-18 -6 -57 -12 -86 -15 -47 -4 -58 -1 -85 22 -22 18 -42 26 -71 26 -34 0 -41
4 -55 32 -10 21 -23 33 -37 33 -12 0 -33 10 -48 21 -15 12 -41 22 -57 24 -37
3 -47 12 -51 50 -4 35 -19 40 -87 30 -42 -7 -44 -8 -23 -18 28 -13 38 -48 22
-77 -10 -19 -17 -21 -43 -15 -18 5 -45 9 -60 10 -57 4 -58 38 -3 74 l28 18
-33 12 c-39 14 -54 13 -99 -3z m2150 -245 c0 -5 2 -15 5 -23 7 -20 -10 -39
-28 -32 -20 7 -22 35 -5 52 14 14 28 16 28 3z m-3120 -519 c0 -37 -38 -57 -75
-40 -13 6 -22 15 -19 19 4 7 80 47 92 49 1 0 2 -13 2 -28z m-130 -22 c0 -5
-12 -10 -26 -10 -14 0 -23 4 -19 10 3 6 15 10 26 10 10 0 19 -4 19 -10z m-190
-115 c0 -8 -7 -15 -15 -15 -9 0 -12 6 -9 15 4 8 10 15 15 15 5 0 9 -7 9 -15z
m4440 -165 c0 -5 -6 -10 -14 -10 -8 0 -18 5 -21 10 -3 6 3 10 14 10 12 0 21
-4 21 -10z m-1741 -415 c14 -23 19 -45 15 -63 -5 -23 2 -38 33 -75 40 -49 53
-56 53 -32 0 23 17 18 38 -13 38 -52 154 -350 192 -492 30 -108 30 -108 41
-89 12 22 -5 190 -24 249 -9 25 -31 97 -51 160 -20 64 -54 146 -77 185 -23 39
-45 80 -50 93 -14 36 24 28 71 -14 27 -25 55 -39 87 -45 25 -5 91 -29 146 -54
55 -25 105 -45 111 -45 21 0 147 -82 201 -131 100 -92 143 -158 214 -324 16
-36 49 -129 60 -165 5 -19 16 -55 23 -80 8 -29 13 -118 15 -255 1 -115 2 -214
2 -220 1 -5 7 -3 15 5 8 8 19 44 25 80 8 45 17 70 32 81 19 14 20 22 14 80 -3
35 -8 95 -10 132 -1 38 -6 83 -9 101 -4 18 -4 40 0 49 5 13 8 13 25 -4 10 -10
19 -26 19 -35 0 -8 7 -22 16 -31 13 -14 15 -39 11 -177 -3 -89 -3 -180 0 -203
l6 -42 18 23 c30 39 57 127 62 206 3 42 9 76 16 78 6 2 19 11 27 20 15 15 18
14 35 -7 11 -13 19 -32 19 -42 0 -10 13 -33 29 -51 15 -18 38 -51 49 -74 22
-43 49 -71 59 -61 3 4 0 35 -6 69 -7 35 -19 99 -27 143 -9 44 -20 98 -26 120
-6 22 -11 87 -12 144 -2 95 -4 106 -24 119 -12 8 -22 23 -22 34 0 18 6 15 43
-17 23 -21 53 -52 67 -70 14 -18 52 -66 85 -106 63 -76 155 -204 155 -215 0
-3 12 -25 28 -48 56 -85 115 -217 179 -404 20 -59 49 -138 65 -176 15 -38 28
-77 28 -87 0 -19 10 -63 36 -164 9 -33 19 -82 24 -110 7 -46 13 -81 54 -280 8
-38 18 -110 21 -158 3 -48 13 -107 22 -130 8 -23 19 -76 23 -117 5 -41 15
-111 24 -155 9 -44 16 -94 16 -112 0 -17 7 -58 14 -90 14 -54 25 -154 48 -418
5 -60 13 -276 17 -480 8 -350 17 -500 42 -710 15 -123 28 -626 18 -678 -4 -23
-8 -60 -9 -83 0 -22 -6 -60 -14 -85 -7 -24 -19 -75 -26 -114 -7 -38 -18 -77
-25 -85 -32 -38 -55 -102 -55 -152 0 -37 3 -48 10 -38 16 25 22 3 9 -33 -9
-27 -21 -38 -51 -48 -39 -13 -51 -42 -27 -66 8 -8 8 -19 -2 -42 -13 -30 -29
-41 -29 -21 0 19 -26 10 -53 -18 -18 -19 -27 -39 -27 -61 0 -20 -7 -39 -17
-46 -14 -11 -15 -16 -4 -43 17 -40 8 -52 -34 -45 -31 5 -35 3 -35 -16 0 -11
-4 -21 -10 -21 -14 0 -12 37 3 43 9 3 9 8 -1 23 -7 11 -15 27 -18 37 -8 23
-21 22 -29 -4 -9 -27 4 -129 16 -129 14 0 11 -40 -3 -42 -7 -1 -31 -2 -52 -2
-34 -1 -43 -6 -59 -33 -16 -28 -17 -38 -7 -68 11 -33 10 -38 -14 -61 -14 -14
-29 -23 -35 -20 -5 4 -22 -9 -38 -29 -30 -38 -66 -46 -81 -19 -7 13 -12 14
-29 4 -34 -21 -56 -74 -49 -114 6 -29 3 -39 -16 -58 l-23 -23 -5 33 c-7 43
-24 46 -28 4 -3 -30 -6 -33 -28 -28 -22 6 -29 -1 -25 -26 2 -19 -20 -58 -33
-58 -13 0 -13 6 0 48 27 88 45 185 35 195 -13 13 -31 -1 -31 -24 0 -16 -34
-109 -45 -127 -1 -1 -14 2 -29 7 -22 9 -26 17 -26 50 0 23 6 44 16 52 14 11
15 26 11 85 -4 46 -1 95 8 140 21 97 20 277 -1 298 -8 9 -21 16 -28 16 -22 0
-80 82 -108 153 -41 101 -146 200 -164 153 -8 -20 -75 6 -85 32 -13 34 -46 45
-118 39 -64 -5 -66 -4 -107 31 -24 22 -62 43 -90 50 -27 7 -57 18 -67 23 -25
13 -45 -4 -42 -35 2 -19 -1 -23 -17 -18 -18 4 -19 6 -4 14 14 8 11 13 -20 28
-20 11 -41 17 -45 14 -5 -3 -20 2 -33 11 -20 13 -29 14 -46 5 -12 -7 -31 -9
-43 -6 -11 3 -33 -2 -48 -9 -15 -8 -34 -13 -41 -10 -7 3 -42 7 -78 9 -136 10
-210 19 -210 26 0 14 30 20 95 20 97 0 119 8 180 66 100 96 139 232 98 346
-22 59 -70 128 -90 128 -17 0 -17 -1 17 -64 46 -83 54 -144 30 -217 -49 -144
-118 -199 -250 -199 -137 0 -261 -45 -353 -130 -30 -28 -58 -50 -63 -50 -14 0
-74 -64 -74 -79 -1 -24 -67 -69 -124 -87 -28 -8 -81 -18 -117 -21 -59 -5 -72
-2 -133 26 -37 17 -70 31 -73 31 -3 0 -28 17 -56 37 -28 21 -69 49 -93 63 -23
14 -77 57 -119 95 -119 107 -152 124 -282 145 -65 11 -78 17 -124 58 -68 61
-79 90 -79 207 0 76 4 104 20 135 23 45 25 61 7 55 -25 -10 -65 -94 -77 -163
-25 -140 28 -270 125 -304 28 -10 61 -18 75 -18 47 -1 172 -39 194 -59 12 -12
26 -21 30 -21 4 0 28 -14 52 -31 34 -23 43 -35 39 -49 -4 -14 2 -23 25 -35 17
-9 30 -21 28 -27 -7 -21 -26 -20 -47 1 -13 13 -34 21 -53 21 -18 0 -50 5 -71
11 -28 8 -42 7 -53 -2 -10 -8 -18 -8 -26 -1 -25 20 -88 25 -106 9 -24 -22
-103 -12 -109 14 -3 11 -9 19 -13 19 -10 0 -63 -41 -73 -57 -10 -16 -29 -17
-44 -2 -6 6 -45 11 -88 11 -67 0 -79 -3 -91 -21 -21 -30 -65 -50 -89 -41 -11
4 -31 3 -45 -2 -13 -5 -35 -7 -47 -3 -28 7 -54 -6 -107 -52 -32 -27 -48 -33
-84 -33 -40 0 -49 -5 -84 -42 -22 -24 -46 -54 -53 -68 -7 -14 -37 -42 -67 -62
-96 -67 -132 -132 -158 -281 -11 -67 -11 -87 3 -155 9 -42 23 -138 32 -212 9
-74 21 -158 27 -187 8 -38 8 -67 -1 -109 -14 -72 -14 -117 0 -131 6 -6 9 -21
7 -34 -3 -21 -7 -23 -48 -20 -40 3 -50 9 -100 63 -30 34 -60 75 -66 92 -16 43
-58 120 -83 152 -12 15 -21 32 -21 39 0 7 -8 23 -18 36 -10 13 -24 49 -31 79
-18 75 -36 107 -63 113 -16 4 -35 28 -60 74 -20 37 -48 83 -62 102 -15 19 -26
41 -26 48 0 7 -13 35 -30 61 -16 27 -30 57 -30 66 0 25 -19 56 -34 56 -15 0
-66 72 -66 93 0 7 -7 22 -15 34 -16 23 -50 115 -90 245 -14 49 -30 88 -35 88
-10 0 -20 -26 -20 -55 0 -13 -5 -27 -10 -30 -18 -11 -30 44 -35 153 -2 59 -9
141 -15 182 -19 135 -29 293 -25 390 14 276 28 732 30 1020 2 179 8 440 14
580 6 140 16 386 21 545 10 280 19 404 39 510 5 28 12 68 16 90 7 46 33 155
70 305 15 58 31 121 35 140 5 19 14 53 20 75 6 22 15 56 20 75 25 99 37 134
110 315 15 39 33 85 40 103 20 52 166 329 193 364 14 18 41 62 60 98 65 120
239 374 304 445 70 76 146 124 251 157 34 11 62 23 62 26 0 3 -12 17 -27 30
l-28 23 25 -6 c56 -13 106 -29 114 -37 6 -4 36 -8 68 -8 44 0 58 3 58 15 0 7
-7 18 -16 23 -36 20 7 22 58 2 55 -21 182 -28 192 -11 3 5 27 12 53 16 25 4
57 14 69 22 21 14 26 13 55 -8 29 -20 35 -21 68 -9 20 7 48 21 62 31 l27 19
24 -32 c29 -37 34 -35 88 33 22 28 63 68 92 90 47 36 57 40 92 34 25 -4 46 -1
60 8 33 21 67 27 86 14 16 -10 17 -14 5 -36 -8 -14 -43 -51 -78 -81 -35 -30
-77 -73 -94 -95 -31 -40 -51 -104 -39 -124 12 -19 76 30 125 96 44 58 140 143
161 143 4 0 17 15 28 34 11 19 35 42 53 51 l32 17 -6 -37 c-3 -21 -15 -48 -27
-60 -32 -34 -21 -85 17 -85 26 0 63 48 63 81 0 24 10 41 43 74 72 70 108 81
161 46 20 -14 39 -18 60 -14 l31 6 -40 -42 c-21 -22 -47 -41 -58 -41 -53 0
-103 -52 -124 -130 -19 -71 -17 -90 11 -90 26 0 23 9 47 -148 l13 -83 21 27
22 27 11 -46 c7 -25 12 -59 12 -75 0 -34 23 -71 34 -53 12 19 21 143 16 220
-3 43 0 101 8 135 7 34 10 70 8 80 -3 11 0 28 5 38 10 18 11 18 42 0 18 -10
39 -17 48 -15 9 2 31 33 49 68 41 80 60 100 83 82 14 -11 14 -22 5 -94 -10
-75 -10 -84 7 -103 10 -11 22 -17 26 -14 5 3 9 -4 9 -16 0 -12 11 -36 25 -54
14 -18 25 -37 25 -42 1 -33 220 -279 228 -255 3 9 -17 57 -52 121 -63 116 -96
192 -96 218 0 40 -35 203 -67 314 -3 11 5 22 26 32 17 9 33 27 37 41 9 35 28
31 53 -10z m-909 -75 c-19 -13 -30 -13 -30 0 0 6 10 10 23 10 18 0 19 -2 7
-10z m-475 -70 c3 -5 15 -10 25 -10 17 0 17 -3 -7 -45 -26 -46 -55 -59 -81
-33 -17 17 -15 35 10 68 22 31 42 38 53 20z m895 -139 c0 -16 -7 -46 -16 -67
l-16 -38 -14 24 c-28 51 -13 110 28 110 13 0 18 -8 18 -29z m-1415 10 c3 -5 1
-12 -4 -15 -12 -8 -41 3 -41 15 0 12 37 12 45 0z m140 -20 c0 -8 -13 -19 -28
-24 -22 -7 -32 -5 -48 9 -30 27 -23 35 29 32 32 -2 47 -7 47 -17z m3171 -468
c8 -44 -11 -68 -25 -31 -5 14 -13 43 -17 64 l-7 39 21 -19 c12 -10 25 -34 28
-53z m-5101 -443 c9 -15 -14 -40 -36 -40 -24 0 -25 26 -1 39 22 13 29 13 37 1z
m29 -2802 c3 -29 10 -77 16 -107 5 -30 7 -58 4 -63 -3 -5 -21 5 -40 22 -19 16
-39 30 -44 30 -16 0 -11 -42 10 -89 18 -38 20 -57 14 -131 -6 -82 5 -167 27
-210 17 -34 69 -208 69 -232 0 -15 -5 -39 -11 -55 l-11 -28 -14 35 c-25 57
-81 258 -104 366 -29 145 -31 375 -2 444 13 32 49 70 66 70 8 0 16 -19 20 -52z
m6423 -65 c47 -31 53 -65 53 -283 0 -227 -12 -365 -40 -460 -11 -36 -27 -91
-35 -122 -26 -94 -47 -92 -51 5 -9 171 -14 647 -8 647 13 0 33 -35 34 -57 0
-13 4 -23 8 -23 17 0 32 25 32 52 0 16 10 42 21 57 39 53 -1 68 -64 26 l-37
-26 0 47 c0 49 17 120 33 142 13 16 23 15 54 -5z m-1606 -1890 c13 -16 12 -17
-3 -4 -10 7 -18 15 -18 17 0 8 8 3 21 -13z m-3411 -213 c0 -13 -62 -51 -70
-44 -6 7 47 54 61 54 5 0 9 -5 9 -10z m2850 -170 c0 -5 -9 -10 -20 -10 -11 0
-20 5 -20 10 0 6 9 10 20 10 11 0 20 -4 20 -10z m-1092 -48 c4 -26 17 -28 39
-7 13 14 20 11 61 -25 25 -23 52 -38 60 -35 7 3 31 8 51 11 33 5 39 3 44 -15
3 -12 13 -21 23 -21 16 0 16 1 0 19 -12 13 -15 27 -10 45 8 34 16 33 47 -6 25
-34 82 -58 133 -58 23 0 25 2 14 15 -18 22 -1 36 49 42 33 4 44 0 66 -21 31
-31 51 -33 60 -6 7 21 19 25 99 34 39 5 56 2 83 -15 34 -21 36 -21 71 -4 52
24 141 29 165 8 16 -16 19 -15 33 5 12 18 19 20 35 11 16 -8 25 -7 40 7 18 16
19 16 19 -4 0 -27 -40 -53 -120 -80 -54 -18 -87 -21 -190 -21 -102 1 -137 -2
-190 -20 -36 -11 -95 -25 -131 -30 -37 -5 -95 -21 -130 -36 -79 -33 -118 -44
-194 -55 -33 -4 -87 -15 -120 -24 -82 -21 -405 -33 -510 -18 -44 6 -116 14
-160 17 -116 9 -312 45 -245 45 37 0 99 34 109 59 11 24 60 61 82 61 5 0 14
-12 19 -26 13 -34 52 -30 60 6 4 16 13 25 25 25 16 0 19 -6 17 -27 -2 -16 1
-28 8 -28 19 0 69 29 79 47 7 13 20 16 55 14 58 -3 131 39 140 80 6 29 38 48
45 27 7 -21 62 -68 80 -68 20 0 41 19 41 36 0 7 5 25 10 39 12 31 33 29 38 -3z
m1420 -119 c49 -161 47 -149 27 -192 -19 -44 -16 -130 5 -156 9 -11 6 -17 -13
-30 -36 -23 -38 -36 -16 -112 25 -88 25 -119 -1 -126 -24 -6 -26 -32 -4 -83 9
-22 22 -64 30 -94 10 -45 10 -58 -1 -70 -8 -9 -10 -23 -5 -35 8 -20 3 -155 -5
-163 -3 -3 -23 7 -45 22 -22 14 -44 26 -50 26 -17 0 -11 -19 10 -30 24 -13 26
-33 6 -50 -8 -6 -16 -24 -18 -38 -3 -25 -8 -28 -57 -34 -29 -3 -58 -12 -63
-20 -5 -7 -7 -39 -4 -71 5 -53 4 -59 -14 -64 -11 -3 -22 -14 -25 -24 -9 -29
-61 -26 -68 4 -4 12 -13 31 -21 42 -15 19 -15 18 -16 -16 0 -28 5 -38 20 -42
11 -3 20 -12 20 -21 0 -20 -39 -36 -86 -36 -28 0 -36 -5 -45 -27 -6 -16 -8
-51 -4 -80 6 -52 6 -53 -19 -53 -16 0 -27 -7 -31 -21 -5 -15 -14 -19 -33 -17
-23 3 -28 10 -36 46 -5 25 -14 42 -23 42 -10 0 -12 -6 -8 -21 6 -19 4 -21 -19
-15 -19 5 -26 3 -26 -9 0 -8 9 -15 19 -15 27 0 54 -39 39 -57 -6 -7 -19 -13
-30 -13 -31 0 -73 -27 -86 -54 -13 -29 -33 -33 -52 -11 -7 8 -20 15 -30 15
-12 0 -23 16 -34 48 -10 26 -28 76 -42 112 -13 36 -24 69 -24 72 0 4 14 5 32
1 31 -6 31 -6 24 28 -14 63 -14 114 1 142 11 22 12 39 3 87 -6 33 -8 86 -5
118 l7 57 -64 66 -64 66 -49 -8 c-28 -4 -55 -8 -61 -8 -7 -1 -9 -12 -6 -26 4
-21 1 -25 -19 -25 -13 0 -42 12 -64 25 -53 33 -69 31 -96 -7 -16 -22 -24 -27
-27 -17 -7 22 -44 59 -60 59 -8 0 -20 -7 -27 -16 -8 -12 -26 -16 -57 -16 -42
1 -47 -1 -58 -28 -15 -37 -21 -37 -47 -1 -28 37 -52 42 -98 20 -28 -14 -42
-16 -56 -8 -17 9 -22 5 -34 -25 -20 -48 -29 -50 -48 -10 -22 44 -38 50 -87 30
-53 -21 -59 -20 -70 9 -13 33 -36 23 -44 -20 -9 -47 -24 -52 -34 -13 -8 32
-10 33 -63 33 -35 0 -63 6 -78 17 -24 17 -51 12 -66 -12 -3 -6 -19 -10 -35
-10 -19 0 -33 -7 -40 -20 -6 -11 -17 -20 -25 -20 -19 0 -24 -11 -14 -37 7 -19
11 -21 38 -10 20 7 31 19 35 39 6 30 30 38 40 12 13 -35 5 -70 -24 -98 -17
-16 -30 -35 -30 -43 0 -7 -4 -13 -10 -13 -5 0 -10 5 -10 10 0 16 -27 12 -34
-5 -8 -23 4 -45 25 -45 12 0 23 -10 29 -25 10 -27 29 -31 62 -14 19 10 20 9
12 -23 -10 -39 -10 -79 0 -103 6 -17 8 -17 25 -1 27 25 32 11 38 -119 5 -100
8 -115 24 -120 11 -4 19 -16 19 -27 0 -33 15 -11 17 25 3 61 13 130 19 136 10
10 34 -31 34 -59 0 -15 11 -58 24 -96 53 -155 52 -147 23 -216 -30 -70 -33
-88 -14 -88 12 0 77 97 77 115 0 6 11 24 24 40 l24 30 13 -30 c8 -16 35 -56
60 -87 26 -31 50 -67 54 -78 9 -29 -1 -66 -21 -74 -22 -8 -54 11 -54 34 0 10
-4 22 -10 25 -6 3 -10 -4 -10 -18 0 -27 -41 -77 -64 -77 -31 0 -65 20 -71 42
-4 13 -13 31 -20 41 -11 16 -16 15 -65 -18 -52 -35 -53 -35 -74 -17 -12 11
-32 25 -45 32 -22 11 -23 16 -17 66 4 33 2 54 -4 54 -5 0 -16 16 -24 35 -16
38 -36 47 -36 15 0 -31 -30 -37 -50 -10 -13 18 -23 21 -46 16 -25 -5 -33 -1
-58 30 -16 20 -35 57 -42 82 -16 52 -40 92 -54 92 -6 0 -10 -7 -10 -16 0 -9
-8 -27 -19 -40 l-18 -23 -22 23 c-11 12 -21 30 -21 40 0 9 -6 38 -14 64 -8 26
-17 59 -20 75 -4 17 -13 27 -24 27 -10 0 -31 14 -47 30 -35 37 -45 38 -45 5 0
-32 -24 -42 -47 -20 -16 17 -26 57 -41 178 -5 33 -15 64 -25 75 -17 16 -19 16
-31 0 -7 -10 -16 -18 -20 -18 -10 0 -7 38 4 45 13 8 13 115 1 115 -5 0 -11 -5
-13 -12 -7 -20 -38 0 -38 24 0 13 -11 45 -25 72 -17 34 -25 66 -25 102 0 29
-5 65 -10 80 -6 15 -12 93 -15 173 -2 80 -9 161 -15 178 -8 23 -9 42 -2 61 5
16 7 41 5 56 -8 42 42 161 79 188 30 21 31 21 44 3 13 -18 15 -18 33 -1 23 21
17 46 -10 46 -25 0 -24 16 1 30 16 9 22 8 26 -5 4 -10 19 -15 44 -15 20 0 51
-5 68 -11 22 -8 36 -7 53 1 17 9 27 9 45 0 20 -11 27 -10 53 13 17 14 41 29
53 32 13 4 31 14 41 23 14 13 23 13 57 3 41 -12 60 -34 60 -69 0 -26 -18 -32
-91 -32 -45 0 -61 -4 -66 -16 -10 -26 13 -37 71 -35 40 1 68 -5 98 -20 26 -13
58 -21 80 -20 20 1 74 -7 120 -18 125 -31 259 -43 508 -48 232 -5 269 -1 398
38 34 10 86 19 115 19 30 0 62 6 74 15 28 20 94 40 178 55 39 7 90 22 115 33
34 15 71 20 150 22 58 1 115 5 127 9 25 8 40 -9 24 -27 -11 -14 -177 -98 -286
-145 -144 -62 -334 -115 -570 -159 -143 -26 -507 -26 -615 1 -131 31 -291 84
-430 141 -74 30 -139 55 -145 55 -6 0 -29 13 -51 29 -50 36 -111 57 -196 66
-65 7 -68 6 -68 -14 0 -24 32 -42 104 -60 27 -7 93 -34 145 -61 53 -26 107
-51 121 -55 14 -4 43 -16 65 -25 22 -10 54 -20 70 -23 17 -2 68 -19 115 -37
316 -119 596 -129 1089 -40 69 12 213 55 268 81 24 10 46 19 51 19 5 0 33 12
63 26 30 15 81 37 114 50 85 32 181 81 245 124 31 20 62 39 70 42 8 3 46 29
84 57 47 35 78 51 99 51 25 0 29 3 24 22 -4 12 -1 28 6 36 10 12 17 8 47 -26
20 -22 41 -58 48 -79z m82 88 c13 -32 10 -83 -5 -88 -10 -3 -45 81 -45 106 0
24 38 10 50 -18z m-1840 -15 c0 -3 -4 -8 -10 -11 -5 -3 -10 -1 -10 4 0 6 5 11
10 11 6 0 10 -2 10 -4z m-900 -30 c0 -15 -45 -56 -61 -56 -16 0 -9 23 13 47
24 26 48 30 48 9z m446 -38 c4 -6 -2 -19 -14 -29 -27 -21 -28 -39 -3 -39 17 0
18 -3 8 -25 -10 -20 -19 -25 -47 -25 -38 0 -80 23 -80 44 0 20 54 66 77 66 12
0 25 5 28 10 8 13 22 13 31 -2z m44 -8 c0 -5 -4 -10 -10 -10 -5 0 -10 5 -10
10 0 6 5 10 10 10 6 0 10 -4 10 -10z m-1672 -295 c7 -14 12 -40 11 -58 0 -29
-2 -26 -19 23 -23 65 -22 60 -12 60 5 0 14 -11 20 -25z m3902 11 c0 -8 -4 -18
-10 -21 -5 -3 -10 3 -10 14 0 12 5 21 10 21 6 0 10 -6 10 -14z m-3099 -27 c-2
-8 -5 -73 -5 -146 -1 -84 -5 -136 -12 -143 -9 -9 -14 -9 -19 -1 -11 20 -8 267
5 291 12 23 38 22 31 -1z m-600 -430 c6 -11 8 -24 4 -27 -7 -8 -55 44 -55 59
0 15 38 -9 51 -32z m2789 -531 c0 -10 -4 -18 -9 -18 -12 0 -21 26 -21 58 l1
27 14 -25 c8 -14 14 -33 15 -42z m-1780 -280 c0 -25 -3 -29 -10 -18 -13 20
-13 50 0 50 6 0 10 -15 10 -32z"/>
<path d="M5343 9985 c-3 -9 -3 -18 0 -22 10 -10 37 6 37 22 0 20 -29 20 -37 0z"/>
<path d="M4120 7350 c-47 -4 -112 -13 -144 -20 -72 -15 -227 -86 -310 -141
-80 -54 -185 -164 -225 -236 -41 -76 -79 -142 -98 -172 -18 -29 -46 -139 -37
-152 10 -17 25 -9 24 14 -3 38 -1 47 15 47 8 0 15 5 15 11 0 5 4 8 10 4 6 -4
6 -15 0 -31 -6 -14 -10 -41 -10 -60 0 -52 28 -44 112 34 55 51 100 80 183 121
61 29 130 63 155 76 87 44 263 94 369 104 206 22 431 13 711 -28 25 -3 69 -3
99 1 38 5 60 3 75 -7 26 -16 155 -26 178 -14 26 14 22 57 -12 132 -16 37 -30
71 -30 77 0 24 40 7 90 -39 30 -28 56 -48 58 -47 1 2 -2 15 -9 28 -19 43 -99
94 -229 145 -151 60 -196 75 -320 102 -52 12 -115 26 -139 31 -23 6 -107 13
-185 15 -77 3 -168 7 -201 8 -33 2 -98 0 -145 -3z m988 -208 c63 -58 74 -78
47 -88 -18 -7 -91 54 -87 73 2 7 -5 13 -15 13 -10 0 -34 14 -53 30 l-35 29 40
1 c35 0 48 -7 103 -58z"/>
<path d="M7265 7329 c-22 -4 -66 -8 -97 -8 -31 -1 -79 -5 -105 -10 -26 -5 -88
-15 -138 -21 -168 -23 -295 -70 -295 -110 0 -23 25 -27 37 -6 9 16 75 36 113
35 21 0 18 -3 -17 -19 -43 -19 -73 -60 -73 -100 0 -12 -9 -24 -24 -30 -13 -4
-35 -23 -49 -41 -21 -27 -28 -31 -40 -20 -10 8 -17 9 -22 1 -12 -20 -24 -10
-21 18 2 15 1 20 -1 12 -3 -8 -9 -19 -14 -24 -10 -11 -12 -96 -3 -120 3 -9 12
-16 19 -16 7 0 18 -7 25 -15 16 -20 79 -19 130 1 26 10 56 15 80 11 22 -3 55
-1 73 3 141 37 193 45 422 70 113 13 302 8 378 -10 23 -5 94 -18 157 -30 111
-20 221 -57 325 -108 54 -26 215 -141 215 -153 0 -10 121 -102 126 -96 3 2 0
23 -5 46 -11 50 -50 103 -99 136 -75 49 -77 52 -62 80 7 14 19 25 26 25 7 0
16 5 20 12 4 7 3 8 -4 4 -7 -4 -12 -2 -12 3 0 21 21 11 33 -16 11 -25 27 -45
79 -100 11 -11 29 -38 39 -60 l19 -38 -4 46 c-7 89 -122 286 -222 380 -53 49
-209 153 -278 185 -70 32 -168 60 -271 79 -87 16 -391 19 -460 4z"/>
<path d="M6498 7128 c-47 -50 -57 -71 -39 -82 8 -6 74 83 87 118 9 24 4 20
-48 -36z"/>
<path d="M6592 7117 c-26 -27 -28 -37 -8 -37 8 0 22 10 30 22 30 42 13 53 -22
15z"/>
<path d="M4375 6708 c-184 -20 -356 -67 -479 -131 -112 -58 -296 -231 -296
-279 0 -10 4 -18 8 -18 4 0 42 35 83 78 124 129 181 159 434 232 59 18 115 23
115 11 0 -6 -12 -13 -27 -17 -81 -17 -169 -48 -215 -75 -57 -34 -300 -250
-337 -299 -46 -63 15 -67 83 -5 46 40 52 42 80 16 12 -11 57 -32 101 -47 64
-21 105 -28 204 -32 190 -7 434 23 586 73 197 64 246 72 346 54 54 -10 74 -9
98 1 46 19 38 37 -24 55 -35 11 -84 38 -137 79 -113 84 -222 149 -297 176 -52
18 -89 23 -210 25 -217 4 -207 3 -193 17 6 6 73 16 160 21 149 11 271 3 352
-21 19 -6 51 -15 72 -20 20 -5 79 -30 132 -56 53 -25 103 -46 112 -46 67 0
-212 146 -341 178 -168 43 -247 48 -410 30z m454 -243 c41 -25 87 -56 102 -70
16 -13 39 -27 51 -30 27 -9 58 -34 58 -48 0 -5 -15 -7 -32 -4 -43 7 -173 -10
-221 -28 -20 -8 -44 -15 -52 -15 -17 0 -21 35 -5 45 6 3 10 39 10 80 0 41 -4
77 -10 80 -17 10 -11 35 8 35 10 0 51 -20 91 -45z m-680 -32 c-4 -66 8 -110
43 -162 16 -24 27 -50 24 -57 -16 -42 -355 28 -356 73 0 23 66 98 111 126 49
30 133 65 162 66 15 1 18 -6 16 -46z m226 21 c33 -35 32 -72 -2 -111 -57 -64
-113 -44 -113 41 0 85 65 124 115 70z"/>
<path d="M7080 6646 c-117 -22 -232 -67 -333 -129 -53 -33 -102 -66 -108 -74
-22 -26 21 -13 120 37 159 79 241 104 441 130 53 7 94 8 110 2 13 -5 65 -7
115 -4 117 6 256 -19 360 -63 17 -7 49 -18 72 -24 23 -7 45 -16 48 -21 3 -5
23 -17 43 -27 49 -22 115 -67 184 -125 51 -43 78 -58 78 -42 0 32 -180 195
-266 241 -73 38 -160 69 -256 90 -94 21 -510 27 -608 9z"/>
<path d="M7233 6580 c-77 -12 -185 -46 -224 -72 -19 -13 -52 -33 -74 -45 -94
-50 -122 -67 -147 -88 -25 -21 -48 -34 -151 -80 -43 -20 -60 -44 -47 -66 7
-11 36 -14 127 -15 115 -1 160 -6 333 -37 173 -31 280 -40 472 -39 216 1 292
11 377 48 31 14 65 23 76 20 38 -9 96 -33 107 -44 15 -15 38 -16 38 -1 0 18
-56 91 -107 141 -52 51 -231 178 -250 178 -7 0 -52 17 -100 39 -48 21 -110 43
-138 49 -69 15 -229 22 -292 12z m-153 -141 c-8 -54 -6 -151 4 -188 l8 -34
-68 7 c-159 17 -272 35 -278 45 -6 9 4 23 25 36 9 6 45 30 80 54 69 49 208
121 224 117 6 -1 8 -18 5 -37z m786 -117 c40 -40 42 -56 12 -76 -37 -24 -273
-75 -286 -62 -3 4 -1 15 6 24 44 63 54 96 50 164 -3 37 -3 70 -1 72 10 9 186
-89 219 -122z m-600 90 c31 -25 35 -46 14 -79 -25 -42 -78 -52 -102 -21 -26
34 -23 73 8 97 32 25 52 26 80 3z"/>
<path d="M5220 4480 c-12 -7 -12 -12 -3 -21 9 -9 16 -9 28 1 29 24 9 42 -25
20z"/>
<path d="M7850 4164 c0 -13 44 -84 52 -84 14 0 9 14 -17 53 -24 35 -35 45 -35
31z"/>
<path d="M8452 3848 c-18 -18 -14 -28 8 -28 11 0 20 6 20 14 0 21 -15 27 -28
14z"/>
<path d="M8257 3673 c-7 -12 -1 -92 7 -100 15 -15 24 15 19 60 -5 43 -15 59
-26 40z"/>
<path d="M8210 3595 c0 -9 5 -15 11 -13 6 2 11 8 11 13 0 5 -5 11 -11 13 -6 2
-11 -4 -11 -13z"/>
<path d="M3816 3125 c-3 -9 0 -15 9 -15 8 0 15 7 15 15 0 8 -4 15 -9 15 -5 0
-11 -7 -15 -15z"/>
<path d="M7360 2941 c0 -11 5 -23 10 -26 6 -4 10 5 10 19 0 14 -4 26 -10 26
-5 0 -10 -9 -10 -19z"/>
<path d="M6610 2810 c0 -11 7 -20 15 -20 8 0 15 9 15 20 0 11 -7 20 -15 20 -8
0 -15 -9 -15 -20z"/>
<path d="M7255 2657 c-19 -15 -13 -37 11 -37 8 0 14 10 14 25 0 29 0 29 -25
12z"/>
<path d="M7311 2644 c0 -11 3 -14 6 -6 3 7 2 16 -1 19 -3 4 -6 -2 -5 -13z"/>
<path d="M7010 2400 c0 -19 20 -27 33 -13 8 7 -11 33 -24 33 -5 0 -9 -9 -9
-20z"/>
<path d="M6600 2225 c0 -9 50 -85 56 -85 11 0 -7 54 -23 73 -15 16 -33 23 -33
12z"/>
<path d="M5040 2030 c0 -19 3 -21 12 -12 9 9 9 15 0 24 -9 9 -12 7 -12 -12z"/>
<path d="M5281 1916 c-8 -9 -11 -19 -7 -23 9 -9 29 13 24 27 -2 8 -8 7 -17 -4z"/>
<path d="M5713 11703 c-16 -6 -17 -29 -3 -38 11 -7 40 12 40 25 0 11 -22 18
-37 13z"/>
<path d="M6243 11653 c-59 -17 -107 -60 -93 -82 7 -12 15 -13 47 -2 79 26 128
55 131 79 4 26 -10 27 -85 5z"/>
<path d="M7340 11380 c0 -5 9 -10 20 -10 13 0 20 -7 20 -20 0 -11 4 -20 9 -20
12 0 1 43 -13 52 -16 11 -36 10 -36 -2z"/>
</g>
</svg>
