<?xml version="1.0" encoding="UTF-8" standalone="no"?>
<svg
   stroke="white"
   fill="white"
   viewBox="0 0 256 256"
   version="1.1"
   id="svg2"
   sodipodi:docname="logo-metu.svg"
   inkscape:version="1.3 (0e150ed, 2023-07-21)"
   xmlns:inkscape="http://www.inkscape.org/namespaces/inkscape"
   xmlns:sodipodi="http://sodipodi.sourceforge.net/DTD/sodipodi-0.dtd"
   xmlns="http://www.w3.org/2000/svg"
   xmlns:svg="http://www.w3.org/2000/svg">
  <defs
     id="defs2" />
  <sodipodi:namedview
     id="namedview2"
     pagecolor="#505050"
     bordercolor="#ffffff"
     borderopacity="1"
     inkscape:showpageshadow="0"
     inkscape:pageopacity="0"
     inkscape:pagecheckerboard="1"
     inkscape:deskcolor="#505050"
     inkscape:zoom="2.1835938"
     inkscape:cx="128"
     inkscape:cy="128"
     inkscape:window-width="1392"
     inkscape:window-height="1212"
     inkscape:window-x="0"
     inkscape:window-y="25"
     inkscape:window-maximized="0"
     inkscape:current-layer="svg2" />
  <path
     d="M111.333,44.217c-45.791,0.246 -83.333,37.99 -83.333,83.782c0,45.963 37.821,83.784 83.784,83.784c45.962,0 83.784,-37.821 83.784,-83.784c-0,-45.792 -37.542,-83.536 -83.334,-83.782l-0.901,-0Zm16.217,165.766c-38.617,-8.141 -66.502,-42.517 -66.502,-81.982c0,-39.466 27.885,-73.842 66.502,-81.982"
     style="fill-rule:nonzero;stroke-width:1.8px;"
     id="path1" />
  <path
     d="M143.766,44.217c-45.792,0.246 -83.334,37.99 -83.334,83.782c0,45.963 37.822,83.784 83.784,83.784c45.963,0 83.784,-37.821 83.784,-83.784c0,-45.792 -37.542,-83.536 -83.333,-83.782l-0.901,-0Z"
     style="fill:none;fill-rule:nonzero;stroke-width:1.8px;"
     id="path2" />
</svg>
