<svg xmlns="http://www.w3.org/2000/svg" viewBox="0 0 512 512">
  <path
    d="m432.733 0h-353.466c-43.708 0-79.267 35.559-79.267 79.267v49.267h512v-49.267c0-43.708-35.559-79.267-79.267-79.267zm-337.4 94.267h-16.066c-19.872-.733-19.874-29.266 0-30h16.066c19.872.733 19.874 29.266 0 30zm72.301 0h-16.067c-19.872-.733-19.874-29.266 0-30h16.067c19.871.733 19.874 29.266 0 30zm72.3 0h-16.067c-19.872-.733-19.874-29.266 0-30h16.067c19.871.733 19.874 29.266 0 30z"
  />
  <path
    d="m0 432.733c0 43.708 35.559 79.267 79.267 79.267h353.467c43.707 0 79.266-35.559 79.266-79.267v-274.2h-512zm353.467-192.8c.733-19.872 29.266-19.874 30 0v16.067c-.733 19.871-29.266 19.874-30 0zm-132.17 58.638c19.135-19.125 50.271-19.125 69.406 0 5.859 5.856 5.862 15.354.006 21.213-5.856 5.86-15.355 5.862-21.213.006-7.441-7.438-19.551-7.438-26.992 0-14.564 13.528-34.749-6.646-21.207-21.219zm-92.764-58.638c.733-19.872 29.266-19.874 30 0v16.067c-.733 19.871-29.266 19.874-30 0z"
  />
</svg>
