<svg xmlns="http://www.w3.org/2000/svg" xmlns:xlink="http://www.w3.org/1999/xlink">

<symbol id="dark" viewBox="0 0 512 512" fill-rule="evenodd" clip-rule="evenodd" stroke-linejoin="round" stroke-miterlimit="1.414">
  <path d="m15 271h32.133c8.284 0 15-6.716 15-15s-6.716-15-15-15h-32.133c-8.284 0-15 6.716-15 15s6.716 15 15 15z"/>
  <path d="m449.866 256c0 8.284 6.716 15 15 15h32.134c8.284 0 15-6.716 15-15s-6.716-15-15-15h-32.134c-8.284 0-15 6.716-15 15z"/>
  <path d="m39.788 148.486 27.796 16.066c7.949 4.598 16.833.852 20.493-5.479 4.146-7.173 1.692-16.348-5.48-20.493l-27.797-16.066c-7.172-4.148-16.348-1.691-20.493 5.479-4.145 7.173-1.692 16.348 5.481 20.493z"/>
  <path d="m138.577 82.616c3.486 6.039 12.24 10.256 20.49 5.49 7.174-4.143 9.632-13.316 5.49-20.49l-16.067-27.828c-4.142-7.174-13.316-9.634-20.49-5.49-7.174 4.143-9.632 13.316-5.49 20.49z"/>
  <path d="m352.934 88.106c7.935 4.583 16.832.845 20.49-5.49l16.066-27.828c4.143-7.175 1.685-16.349-5.49-20.49-7.175-4.144-16.348-1.684-20.49 5.49l-16.066 27.828c-4.143 7.175-1.685 16.349 5.49 20.49z"/>
  <path d="m444.32 164.563 27.877-16.066c7.178-4.137 9.643-13.309 5.506-20.486-4.136-7.178-13.309-9.644-20.486-5.506l-27.877 16.065c-7.178 4.137-9.643 13.309-5.506 20.486 3.49 6.057 12.245 10.258 20.486 5.507z"/>
  <path d="m256 62.134c8.284 0 15-6.716 15-15v-32.134c0-8.284-6.716-15-15-15s-15 6.716-15 15v32.134c0 8.284 6.716 15 15 15z"/>
  <path d="m105.375 272.972c15.473 0 30.799 2.633 45.235 7.707 29.459-24.348 66.162-37.545 105.39-37.545 39.229 0 75.932 13.197 105.39 37.545 14.437-5.074 29.763-7.707 45.235-7.707 2.702 0 5.384.088 8.048.244.607-5.656.927-11.399.927-17.216 0-88.145-71.455-159.6-159.6-159.6s-159.6 71.455-159.6 159.6c0 5.818.32 11.56.927 17.216 2.664-.156 5.346-.244 8.048-.244z"/>
  <path d="m406.625 302.972c-18.19 0-35.665 4.521-51.256 13.181-25.609-27.497-61.117-43.019-99.369-43.019s-73.759 15.521-99.369 43.019c-15.592-8.659-33.066-13.181-51.256-13.181-58.104 0-105.375 46.884-105.375 104.514 0 57.629 47.271 104.514 105.375 104.514h301.25c58.104 0 105.375-46.885 105.375-104.514 0-57.63-47.271-104.514-105.375-104.514z"/>
</symbol>

<symbol id="darker" viewBox="0 0 512 512" fill-rule="evenodd" clip-rule="evenodd" stroke-linejoin="round" stroke-miterlimit="1.414">
  <path d="m334.28125 5.109375c-5.625 5.230469-7.558594 13.277344-4.921875 20.496094 9.371094 25.648437 14.125 52.75 14.125 80.554687 0 63.273438-24.640625 122.765625-69.378906 167.519532-44.746094 44.761718-104.253907 69.410156-167.550781 69.410156-27.738282 0-54.804688-4.75-80.449219-14.125-7.214844-2.636719-15.257813-.707032-20.492188 4.921875-5.234375 5.628906-6.582031 13.796875-3.425781 20.808593 20.492188 45.566407 53.339844 84.402344 94.984375 112.304688 42.679687 28.59375 92.480469 44.140625 144.027344 44.964844 36.664062.585937 72.347656-6.21875 106.058593-20.222656 32.480469-13.492188 61.652344-33.019532 86.703126-58.035157 25.046874-25.015625 44.609374-54.15625 58.148437-86.617187 13.535156-32.464844 20.390625-66.769532 20.386719-102.027344 0-1.328125-.007813-2.664062-.027344-3.996094-.753906-51.605468-16.292969-101.492187-44.929688-144.257812-27.929687-41.707032-66.816406-74.601563-112.449218-95.121094-7.011719-3.15625-15.179688-1.8125-20.808594 3.421875zm0 0"/>
</symbol>

<symbol id="lighter" viewBox="0 0 512 512" fill-rule="evenodd" clip-rule="evenodd" stroke-linejoin="round" stroke-miterlimit="1.414">
  <path d="m256 391c-74.441406 0-135-60.558594-135-135s60.558594-135 135-135 135 60.558594 135 135-60.558594 135-135 135zm0 0"/>
  <path d="m256 91c-8.289062 0-15-6.710938-15-15v-61c0-8.289062 6.710938-15 15-15s15 6.710938 15 15v61c0 8.289062-6.710938 15-15 15zm0 0"/>
  <path d="m256 512c-8.289062 0-15-6.710938-15-15v-61c0-8.289062 6.710938-15 15-15s15 6.710938 15 15v61c0 8.289062-6.710938 15-15 15zm0 0"/>
  <path d="m153.007812 107.609375-30-51.957031c-4.148437-7.175782-1.6875-16.347656 5.492188-20.492188 7.132812-4.160156 16.347656-1.699218 20.492188 5.492188l30 51.957031c4.148437 7.179687 1.6875 16.351563-5.492188 20.496094-7.152344 4.128906-16.34375 1.691406-20.492188-5.496094zm0 0"/>
  <path d="m363.007812 471.347656-30-51.957031c-4.148437-7.179687-1.6875-16.351563 5.492188-20.496094 7.117188-4.160156 16.332031-1.699219 20.492188 5.496094l30 51.957031c4.148437 7.175782 1.6875 16.347656-5.492188 20.492188-7.152344 4.132812-16.34375 1.691406-20.492188-5.492188zm0 0"/>
  <path d="m92.609375 178.992188-51.957031-30c-7.175782-4.144532-9.636719-13.3125-5.492188-20.492188 4.144532-7.207031 13.316406-9.667969 20.492188-5.492188l51.957031 30c7.179687 4.144532 9.640625 13.3125 5.496094 20.492188-4.15625 7.195312-13.355469 9.617188-20.496094 5.492188zm0 0"/>
  <path d="m456.347656 388.992188-51.957031-30c-7.179687-4.144532-9.640625-13.3125-5.496094-20.492188 4.148438-7.207031 13.316407-9.640625 20.496094-5.492188l51.957031 30c7.175782 4.144532 9.636719 13.3125 5.492188 20.492188-4.15625 7.195312-13.355469 9.617188-20.492188 5.492188zm0 0"/>
  <path d="m35.160156 383.5c-4.144531-7.179688-1.683594-16.347656 5.492188-20.492188l51.957031-30c7.164063-4.148437 16.335937-1.714843 20.496094 5.492188 4.144531 7.179688 1.683593 16.347656-5.496094 20.492188l-51.957031 30c-7.152344 4.132812-16.34375 1.691406-20.492188-5.492188zm0 0"/>
  <path d="m398.894531 173.5c-4.144531-7.179688-1.683593-16.347656 5.496094-20.492188l51.957031-30c7.117188-4.175781 16.332032-1.714843 20.492188 5.492188 4.144531 7.179688 1.683594 16.347656-5.492188 20.492188l-51.957031 30c-7.15625 4.132812-16.347656 1.691406-20.496094-5.492188zm0 0"/>
  <path d="m128.5 476.839844c-7.179688-4.144532-9.640625-13.316406-5.492188-20.492188l30-51.957031c4.160157-7.195313 13.300782-9.65625 20.492188-5.496094 7.179688 4.148438 9.640625 13.316407 5.492188 20.496094l-30 51.957031c-4.15625 7.195313-13.351563 9.617188-20.492188 5.492188zm0 0"/>
  <path d="m338.5 113.105469c-7.179688-4.148438-9.640625-13.316407-5.492188-20.496094l30-51.957031c4.144532-7.191406 13.328126-9.652344 20.492188-5.492188 7.179688 4.144532 9.640625 13.316406 5.492188 20.492188l-30 51.957031c-4.15625 7.199219-13.351563 9.617187-20.492188 5.496094zm0 0"/>
  <path d="m76 271h-61c-8.289062 0-15-6.710938-15-15s6.710938-15 15-15h61c8.289062 0 15 6.710938 15 15s-6.710938 15-15 15zm0 0"/>
  <path d="m497 271h-61c-8.289062 0-15-6.710938-15-15s6.710938-15 15-15h61c8.289062 0 15 6.710938 15 15s-6.710938 15-15 15zm0 0"/>
</symbol>

<symbol id="light" viewBox="0 0 512 512" fill-rule="evenodd" clip-rule="evenodd" stroke-linejoin="round" stroke-miterlimit="1.414">
  <circle cx="256" cy="256" r="139"/>
  <path d="m256 81.643c8.284 0 15-6.716 15-15v-51.643c0-8.284-6.716-15-15-15s-15 6.716-15 15v51.643c0 8.284 6.716 15 15 15z"/>
  <path d="m497 241h-51.643c-8.284 0-15 6.716-15 15s6.716 15 15 15h51.643c8.284 0 15-6.716 15-15s-6.716-15-15-15z"/>
  <path d="m256 430.357c-8.284 0-15 6.716-15 15v51.643c0 8.284 6.716 15 15 15s15-6.716 15-15v-51.643c0-8.284-6.716-15-15-15z"/>
  <path d="m81.643 256c0-8.284-6.716-15-15-15h-51.643c-8.284 0-15 6.716-15 15s6.716 15 15 15h51.643c8.284 0 15-6.716 15-15z"/>
  <path d="m389.896 137.104c3.839 0 7.678-1.464 10.606-4.394l36.517-36.517c5.858-5.858 5.858-15.355 0-21.213-5.857-5.858-15.355-5.858-21.213 0l-36.517 36.517c-5.858 5.858-5.858 15.355 0 21.213 2.93 2.93 6.769 4.394 10.607 4.394z"/>
  <path d="m400.502 379.29c-5.857-5.857-15.355-5.857-21.213 0-5.858 5.858-5.858 15.355 0 21.213l36.518 36.517c2.929 2.929 6.768 4.393 10.606 4.393s7.678-1.465 10.606-4.394c5.858-5.858 5.858-15.355 0-21.213z"/>
  <path d="m111.497 379.289-36.517 36.517c-5.858 5.858-5.858 15.355 0 21.213 2.929 2.929 6.768 4.394 10.606 4.394s7.678-1.464 10.606-4.394l36.517-36.517c5.858-5.858 5.858-15.355 0-21.213-5.856-5.858-15.355-5.858-21.212 0z"/>
  <path d="m111.498 132.71c2.929 2.929 6.768 4.394 10.606 4.394s7.678-1.464 10.606-4.394c5.858-5.858 5.858-15.355 0-21.213l-36.517-36.517c-5.857-5.858-15.355-5.858-21.213 0s-5.858 15.355 0 21.213z"/>
  <path d="m322.912 94.993c1.883.782 3.832 1.152 5.751 1.152 5.879 0 11.46-3.479 13.857-9.248l19.818-47.688c3.179-7.65-.445-16.429-8.095-19.608-7.649-3.178-16.428.444-19.608 8.095l-19.818 47.688c-3.178 7.651.446 16.43 8.095 19.609z"/>
  <path d="m484.303 334.636-47.688-19.818c-7.651-3.179-16.429.444-19.608 8.095-3.179 7.65.445 16.429 8.095 19.608l47.688 19.818c1.883.782 3.832 1.152 5.751 1.152 5.879 0 11.46-3.479 13.857-9.248 3.179-7.649-.445-16.428-8.095-19.607z"/>
  <path d="m189.088 417.007c-7.651-3.178-16.429.444-19.608 8.095l-19.818 47.688c-3.179 7.65.445 16.429 8.095 19.608 1.883.782 3.832 1.152 5.751 1.152 5.879 0 11.46-3.479 13.857-9.248l19.818-47.688c3.178-7.649-.446-16.428-8.095-19.607z"/>
  <path d="m27.697 177.364 47.688 19.818c1.883.782 3.832 1.152 5.751 1.152 5.879 0 11.46-3.479 13.857-9.248 3.179-7.65-.445-16.429-8.095-19.608l-47.688-19.817c-7.65-3.177-16.429.445-19.608 8.095s.445 16.429 8.095 19.608z"/>
  <path d="m417.163 189.465c2.389 5.785 7.979 9.28 13.871 9.28 1.907 0 3.846-.366 5.718-1.139l47.734-19.707c7.657-3.161 11.303-11.931 8.142-19.589-3.162-7.658-11.934-11.302-19.589-8.141l-47.734 19.707c-7.658 3.162-11.303 11.932-8.142 19.589z"/>
  <path d="m342.124 425.304c-3.161-7.658-11.933-11.301-19.589-8.141-7.658 3.161-11.303 11.931-8.142 19.589l19.707 47.735c2.389 5.785 7.979 9.28 13.871 9.28 1.907 0 3.846-.366 5.718-1.139 7.658-3.161 11.303-11.932 8.142-19.589z"/>
  <path d="m94.837 322.535c-3.161-7.657-11.929-11.304-19.589-8.141l-47.735 19.707c-7.657 3.161-11.303 11.931-8.142 19.589 2.389 5.785 7.978 9.28 13.871 9.28 1.906 0 3.846-.366 5.718-1.139l47.735-19.707c7.658-3.162 11.303-11.932 8.142-19.589z"/>
  <path d="m169.876 86.696c2.389 5.785 7.979 9.28 13.871 9.28 1.907 0 3.846-.366 5.718-1.139 7.658-3.161 11.303-11.931 8.142-19.589l-19.707-47.735c-3.162-7.658-11.934-11.302-19.589-8.141-7.658 3.161-11.303 11.932-8.142 19.589z"/>
</symbol>

<symbol id="hue" viewBox="0 0 512 512" fill-rule="evenodd" clip-rule="evenodd" stroke-linejoin="round" stroke-miterlimit="1.414">
  <path d="m52.75 274.875c.391 0 .78.013 1.17.018 10.833-26.464 26.925-50.765 47.754-71.594 41.222-41.222 96.029-63.924 154.326-63.924s113.104 22.702 154.326 63.924c20.829 20.829 36.921 45.13 47.754 71.594.39-.006.779-.018 1.17-.018 15.646 0 30.29 4.367 42.782 11.943-30.791-106.828-129.429-185.193-246.032-185.193s-215.241 78.365-246.032 185.193c12.492-7.576 27.136-11.943 42.782-11.943z"/>
  <path d="m366.364 309.279c-18.664-42.441-61.106-72.154-110.364-72.154s-91.7 29.713-110.364 72.154c13.083 1.634 24.981 7.117 34.526 15.286 12.786-29.217 41.959-49.69 75.838-49.69s63.052 20.473 75.838 49.69c9.545-8.169 21.443-13.652 34.526-15.286z"/>
  <path d="m256 207.125c64 0 118.789 40.16 140.513 96.6 8.568-9.941 19.376-17.703 31.451-22.659-29.389-65.753-95.409-111.691-171.964-111.691s-142.575 45.938-171.964 111.691c12.075 4.956 22.883 12.718 31.451 22.659 21.724-56.44 76.513-96.6 140.513-96.6z"/>
  <path d="m137.437 338.75c-5.728 0-11.209 1.32-16.292 3.926-3.637 1.865-7.878 2.164-11.742.827-3.863-1.336-7.014-4.189-8.724-7.902-8.596-18.665-27.409-30.726-47.93-30.726-29.086 0-52.75 23.663-52.75 52.75s23.664 52.75 52.75 52.75h84.687c19.747 0 35.813-16.065 35.813-35.813s-16.064-35.812-35.812-35.812z"/>
  <path d="m459.25 304.875c-20.521 0-39.334 12.061-47.93 30.726-1.709 3.713-4.86 6.566-8.724 7.902-3.864 1.337-8.104 1.036-11.742-.827-5.083-2.605-10.564-3.926-16.292-3.926-19.747 0-35.813 16.065-35.813 35.813s16.065 35.813 35.813 35.813h84.688c29.086 0 52.75-23.663 52.75-52.75s-23.664-52.751-52.75-52.751z"/>
</symbol>

<symbol id="home" viewBox="0 0 512 512" fill-rule="evenodd" clip-rule="evenodd" stroke-linejoin="round" stroke-miterlimit="1.414">
  <path d="m498.195312 222.695312c-.011718-.011718-.023437-.023437-.035156-.035156l-208.855468-208.847656c-8.902344-8.90625-20.738282-13.8125-33.328126-13.8125-12.589843 0-24.425781 4.902344-33.332031 13.808594l-208.746093 208.742187c-.070313.070313-.140626.144531-.210938.214844-18.28125 18.386719-18.25 48.21875.089844 66.558594 8.378906 8.382812 19.445312 13.238281 31.277344 13.746093.480468.046876.964843.070313 1.453124.070313h8.324219v153.699219c0 30.414062 24.746094 55.160156 55.167969 55.160156h81.710938c8.28125 0 15-6.714844 15-15v-120.5c0-13.878906 11.289062-25.167969 25.167968-25.167969h48.195313c13.878906 0 25.167969 11.289063 25.167969 25.167969v120.5c0 8.285156 6.714843 15 15 15h81.710937c30.421875 0 55.167969-24.746094 55.167969-55.160156v-153.699219h7.71875c12.585937 0 24.421875-4.902344 33.332031-13.808594 18.359375-18.371093 18.367187-48.253906.023437-66.636719zm0 0"/>
</symbol>

<symbol id="linkedin" viewBox="0 0 16 16" fill-rule="evenodd" clip-rule="evenodd" stroke-linejoin="round" stroke-miterlimit="1.414">
  <path d="M13.632 13.635h-2.37V9.922c0-.886-.018-2.025-1.234-2.025-1.235 0-1.424.964-1.424 1.96v3.778h-2.37V6H8.51v1.04h.03c.318-.6 1.092-1.233 2.247-1.233 2.4 0 2.845 1.58 2.845 3.637v4.188zM3.558 4.955c-.762 0-1.376-.617-1.376-1.377 0-.758.614-1.375 1.376-1.375.76 0 1.376.617 1.376 1.375 0 .76-.617 1.377-1.376 1.377zm1.188 8.68H2.37V6h2.376v7.635zM14.816 0H1.18C.528 0 0 .516 0 1.153v13.694C0 15.484.528 16 1.18 16h13.635c.652 0 1.185-.516 1.185-1.153V1.153C16 .516 15.467 0 14.815 0z" fill-rule="nonzero"/>
</symbol>

<symbol id="github" viewBox="0 0 16 16" fill-rule="evenodd" clip-rule="evenodd" stroke-linejoin="round" stroke-miterlimit="1.414">
  <path d="M8 0C3.58 0 0 3.582 0 8c0 3.535 2.292 6.533 5.47 7.59.4.075.547-.172.547-.385 0-.19-.007-.693-.01-1.36-2.226.483-2.695-1.073-2.695-1.073-.364-.924-.89-1.17-.89-1.17-.725-.496.056-.486.056-.486.803.056 1.225.824 1.225.824.714 1.223 1.873.87 2.33.665.072-.517.278-.87.507-1.07-1.777-.2-3.644-.888-3.644-3.953 0-.873.31-1.587.823-2.147-.09-.202-.36-1.015.07-2.117 0 0 .67-.215 2.2.82.64-.178 1.32-.266 2-.27.68.004 1.36.092 2 .27 1.52-1.035 2.19-.82 2.19-.82.43 1.102.16 1.915.08 2.117.51.56.82 1.274.82 2.147 0 3.073-1.87 3.75-3.65 3.947.28.24.54.73.54 1.48 0 1.07-.01 1.93-.01 2.19 0 .21.14.46.55.38C13.71 14.53 16 11.53 16 8c0-4.418-3.582-8-8-8"/>
</symbol>

<symbol id="stackoverflow" viewBox="0 0 16 16" fill-rule="evenodd" clip-rule="evenodd" stroke-linejoin="round" stroke-miterlimit="1.414">
  <path d="M12.658 14.577v-4.27h1.423V16H1.23v-5.693h1.42v4.27h10.006zm-8.583-1.423h7.16V11.73h-7.16v1.424zm.173-3.235l6.987 1.46.3-1.38L4.55 8.54l-.302 1.38zm.906-3.37l6.47 3.02.602-1.3-6.47-3.02-.602 1.29zm1.81-3.19l5.478 4.57.906-1.08L7.87 2.28l-.9 1.078zM10.502 0L9.338.863l4.27 5.735 1.164-.862L10.5 0z"/>
</symbol>

<symbol id="twitter" viewBox="0 0 16 16" fill-rule="evenodd" clip-rule="evenodd" stroke-linejoin="round" stroke-miterlimit="1.414">
  <path d="M16 3.038c-.59.26-1.22.437-1.885.517.677-.407 1.198-1.05 1.443-1.816-.634.37-1.337.64-2.085.79-.598-.64-1.45-1.04-2.396-1.04-1.812 0-3.282 1.47-3.282 3.28 0 .26.03.51.085.75-2.728-.13-5.147-1.44-6.766-3.42C.83 2.58.67 3.14.67 3.75c0 1.14.58 2.143 1.46 2.732-.538-.017-1.045-.165-1.487-.41v.04c0 1.59 1.13 2.918 2.633 3.22-.276.074-.566.114-.865.114-.21 0-.41-.02-.61-.058.42 1.304 1.63 2.253 3.07 2.28-1.12.88-2.54 1.404-4.07 1.404-.26 0-.52-.015-.78-.045 1.46.93 3.18 1.474 5.04 1.474 6.04 0 9.34-5 9.34-9.33 0-.14 0-.28-.01-.42.64-.46 1.2-1.04 1.64-1.7z" fill-rule="nonzero"/>
</symbol>

<symbol id="youtube" viewBox="0 0 16 16" fill-rule="evenodd" clip-rule="evenodd" stroke-linejoin="round" stroke-miterlimit="1.414">
  <path d="M0 7.345c0-1.294.16-2.59.16-2.59s.156-1.1.636-1.587c.608-.637 1.408-.617 1.764-.684C3.84 2.36 8 2.324 8 2.324s3.362.004 5.6.166c.314.038.996.04 1.604.678.48.486.636 1.588.636 1.588S16 6.05 16 7.346v1.258c0 1.296-.16 2.59-.16 2.59s-.156 1.102-.636 1.588c-.608.638-1.29.64-1.604.678-2.238.162-5.6.166-5.6.166s-4.16-.037-5.44-.16c-.356-.067-1.156-.047-1.764-.684-.48-.487-.636-1.587-.636-1.587S0 9.9 0 8.605v-1.26zm6.348 2.73V5.58l4.323 2.255-4.32 2.24z"/>
</symbol>

<symbol id="instagram" viewBox="0 0 16 16" fill-rule="evenodd" clip-rule="evenodd" stroke-linejoin="round" stroke-miterlimit="1.414">
  <path d="M8 0C5.827 0 5.555.01 4.702.048 3.85.088 3.27.222 2.76.42c-.526.204-.973.478-1.417.923-.445.444-.72.89-.923 1.417-.198.51-.333 1.09-.372 1.942C.008 5.555 0 5.827 0 8s.01 2.445.048 3.298c.04.852.174 1.433.372 1.942.204.526.478.973.923 1.417.444.445.89.72 1.417.923.51.198 1.09.333 1.942.372.853.04 1.125.048 3.298.048s2.445-.01 3.298-.048c.852-.04 1.433-.174 1.942-.372.526-.204.973-.478 1.417-.923.445-.444.72-.89.923-1.417.198-.51.333-1.09.372-1.942.04-.853.048-1.125.048-3.298s-.01-2.445-.048-3.298c-.04-.852-.174-1.433-.372-1.942-.204-.526-.478-.973-.923-1.417-.444-.445-.89-.72-1.417-.923-.51-.198-1.09-.333-1.942-.372C10.445.008 10.173 0 8 0zm0 1.44c2.136 0 2.39.01 3.233.048.78.036 1.203.166 1.485.276.374.145.64.318.92.598.28.28.453.546.598.92.11.282.24.705.276 1.485.038.844.047 1.097.047 3.233s-.01 2.39-.05 3.233c-.04.78-.17 1.203-.28 1.485-.15.374-.32.64-.6.92-.28.28-.55.453-.92.598-.28.11-.71.24-1.49.276-.85.038-1.1.047-3.24.047s-2.39-.01-3.24-.05c-.78-.04-1.21-.17-1.49-.28-.38-.15-.64-.32-.92-.6-.28-.28-.46-.55-.6-.92-.11-.28-.24-.71-.28-1.49-.03-.84-.04-1.1-.04-3.23s.01-2.39.04-3.24c.04-.78.17-1.21.28-1.49.14-.38.32-.64.6-.92.28-.28.54-.46.92-.6.28-.11.7-.24 1.48-.28.85-.03 1.1-.04 3.24-.04zm0 2.452c-2.27 0-4.108 1.84-4.108 4.108 0 2.27 1.84 4.108 4.108 4.108 2.27 0 4.108-1.84 4.108-4.108 0-2.27-1.84-4.108-4.108-4.108zm0 6.775c-1.473 0-2.667-1.194-2.667-2.667 0-1.473 1.194-2.667 2.667-2.667 1.473 0 2.667 1.194 2.667 2.667 0 1.473-1.194 2.667-2.667 2.667zm5.23-6.937c0 .53-.43.96-.96.96s-.96-.43-.96-.96.43-.96.96-.96.96.43.96.96z"/>
</symbol>

<symbol id="email" viewBox="0 0 512 512" fill-rule="evenodd" clip-rule="evenodd" stroke-linejoin="round" stroke-miterlimit="1.414">
  <path d="m298.789 313.693c-12.738 8.492-27.534 12.981-42.789 12.981-15.254 0-30.05-4.489-42.788-12.981l-209.803-139.873c-1.164-.776-2.298-1.585-3.409-2.417v229.197c0 26.278 21.325 47.133 47.133 47.133h417.733c26.278 0 47.133-21.325 47.133-47.133v-229.198c-1.113.834-2.249 1.645-3.416 2.422z"/>
  <path d="m20.05 148.858 209.803 139.874c7.942 5.295 17.044 7.942 26.146 7.942 9.103 0 18.206-2.648 26.148-7.942l209.803-139.874c12.555-8.365 20.05-22.365 20.05-37.475 0-25.981-21.137-47.117-47.117-47.117h-417.766c-25.98.001-47.117 21.137-47.117 47.142 0 15.085 7.496 29.085 20.05 37.45z"/>
</symbol>

<symbol id="feed" viewBox="0 0 16 16" fill-rule="evenodd" clip-rule="evenodd" stroke-linejoin="round" stroke-miterlimit="1.414">
  <path d="M12.8 16C12.8 8.978 7.022 3.2 0 3.2V0c8.777 0 16 7.223 16 16h-3.2zM2.194 11.61c1.21 0 2.195.985 2.195 2.196 0 1.21-.99 2.194-2.2 2.194C.98 16 0 15.017 0 13.806c0-1.21.983-2.195 2.194-2.195zM10.606 16h-3.11c0-4.113-3.383-7.497-7.496-7.497v-3.11c5.818 0 10.606 4.79 10.606 10.607z"/>
</symbol>

<symbol id="download" fill="none" viewBox="0 0 24 24" stroke-width="1.5" stroke="currentColor" class="w-6 h-6">
  <path stroke-linecap="round" stroke-linejoin="round" d="M3 16.5v2.25A2.25 2.25 0 0 0 5.25 21h13.5A2.25 2.25 0 0 0 21 18.75V16.5M16.5 12 12 16.5m0 0L7.5 12m4.5 4.5V3" />
</symbol>

<symbol id="404" viewBox="0 0 512 512" fill-rule="evenodd" clip-rule="evenodd" stroke-linejoin="round" stroke-miterlimit="1.414">
  <path d="m432.733 0h-353.466c-43.708 0-79.267 35.559-79.267 79.267v49.267h512v-49.267c0-43.708-35.559-79.267-79.267-79.267zm-337.4 94.267h-16.066c-19.872-.733-19.874-29.266 0-30h16.066c19.872.733 19.874 29.266 0 30zm72.301 0h-16.067c-19.872-.733-19.874-29.266 0-30h16.067c19.871.733 19.874 29.266 0 30zm72.3 0h-16.067c-19.872-.733-19.874-29.266 0-30h16.067c19.871.733 19.874 29.266 0 30z"/>
  <path d="m0 432.733c0 43.708 35.559 79.267 79.267 79.267h353.467c43.707 0 79.266-35.559 79.266-79.267v-274.2h-512zm353.467-192.8c.733-19.872 29.266-19.874 30 0v16.067c-.733 19.871-29.266 19.874-30 0zm-132.17 58.638c19.135-19.125 50.271-19.125 69.406 0 5.859 5.856 5.862 15.354.006 21.213-5.856 5.86-15.355 5.862-21.213.006-7.441-7.438-19.551-7.438-26.992 0-14.564 13.528-34.749-6.646-21.207-21.219zm-92.764-58.638c.733-19.872 29.266-19.874 30 0v16.067c-.733 19.871-29.266 19.874-30 0z"/>
</symbol>

</svg>
