<svg xmlns="http://www.w3.org/2000/svg" viewBox="0 0 256 256">
  <path
    d="M256,57.6l0,140.8c0,31.79 -25.81,57.6 -57.6,57.6l-140.8,0c-31.79,0 -57.6,-25.81 -57.6,-57.6l0,-140.8c0,-31.79 25.81,-57.6 57.6,-57.6l140.8,0c31.79,0 57.6,25.81 57.6,57.6Zm-50.432,60.339l7.706,-7.707c0.214,-0.214 0.857,-0.856 -0.428,-2.355c-0.357,-0.483 -0.901,-0.794 -1.498,-0.856c-0.334,0.01 -0.648,0.167 -0.857,0.428l-7.706,7.707l-7.707,-7.921c-0.642,-0.642 -1.284,-0.428 -2.355,0.428c-1.07,0.856 -1.07,1.713 -0.428,2.355l7.707,7.706l-7.75,7.921c-0.224,0.237 -0.373,0.535 -0.428,0.856c0.009,0.613 0.333,1.18 0.856,1.499c0.422,0.404 0.937,0.698 1.499,0.856c0.389,-0.042 0.759,-0.19 1.07,-0.428l7.707,-7.707l7.707,7.707c0.208,0.261 0.522,0.418 0.856,0.428c0.597,-0.062 1.141,-0.373 1.498,-0.856c0.643,-0.856 0.857,-1.713 0.215,-2.141l-7.664,-7.92Zm-64.015,-11.346c-11.744,-0 -21.408,9.663 -21.408,21.407c0,11.744 9.664,21.407 21.408,21.407c11.743,0 21.407,-9.663 21.407,-21.407c-0,-11.744 -9.664,-21.407 -21.407,-21.407Zm-0,38.319c-0.036,0 -0.072,0 -0.107,0c-9.219,0 -16.805,-7.586 -16.805,-16.805c0,-9.218 7.586,-16.804 16.805,-16.804c9.178,-0 16.746,7.519 16.804,16.697c0.002,0.095 0.003,0.19 0.003,0.286c-0,9.121 -7.506,16.626 -16.627,16.626c-0.024,-0 -0.049,-0 -0.073,-0Zm-46.012,-38.319c-11.744,-0 -21.407,9.663 -21.407,21.407c-0,11.744 9.663,21.407 21.407,21.407c11.744,0 21.407,-9.663 21.407,-21.407c-0.115,-11.7 -9.707,-21.292 -21.407,-21.407Zm-0,38.319c-0.036,0 -0.071,0 -0.107,0c-9.219,0 -16.805,-7.586 -16.805,-16.805c0,-9.218 7.586,-16.804 16.805,-16.804c9.179,-0 16.746,7.519 16.805,16.697c0,9.197 -7.502,16.795 -16.698,16.912Zm-36.828,-25.475c-4.034,-0.655 -8.162,0.435 -11.346,2.997l0,-11.346l19.267,0c0.642,0 1.07,-0.214 1.07,-2.141c0,-1.926 -0.856,-1.926 -1.284,-1.926l-21.194,-0c-1.056,-0 -1.926,0.869 -1.926,1.926l-0,18.839c-0,1.07 0.642,1.284 1.712,1.498c0.664,0.302 1.453,0.127 1.927,-0.428c2.435,-3.446 6.492,-5.393 10.704,-5.137c4.947,0.617 8.904,4.487 9.633,9.419c0.668,5.862 -3.565,11.249 -9.419,11.988l-1.285,-0c-4.477,-0.063 -8.481,-2.875 -10.061,-7.065c-0.214,-0.642 -0.642,-1.07 -2.355,-0.428c-1.712,0.643 -1.927,1.071 -1.712,1.713c2.881,7.697 11.517,11.727 19.266,8.991c7.697,-2.881 11.727,-11.517 8.991,-19.267c-1.915,-5.166 -6.531,-8.875 -11.988,-9.633Zm118.811,-12.63c-5.84,0.672 -10.292,5.681 -10.275,11.56l-0,19.052c-0,1.071 0.856,1.285 2.14,1.285c1.285,-0 2.141,-0.214 2.141,-1.285l-0,-19.052c-0.071,-3.631 2.612,-6.776 6.208,-7.279c1.942,-0.185 3.878,0.435 5.352,1.713c1.487,1.293 2.346,3.167 2.355,5.138c-0.143,1.461 -0.659,2.862 -1.499,4.067c-1.378,1.903 -3.651,2.958 -5.994,2.783c-0.856,-0 -1.498,-0 -1.712,1.927c-0,1.284 -0,1.926 1.07,2.14c2.151,0.209 4.316,-0.239 6.208,-1.284c3.45,-1.757 5.788,-5.143 6.208,-8.991c0.026,-0.307 0.039,-0.615 0.039,-0.924c-0,-5.807 -4.562,-10.681 -10.357,-11.064c-0.612,0.175 -1.248,0.248 -1.884,0.214Z"
  />
</svg>
