<svg xmlns="http://www.w3.org/2000/svg" viewBox="0 0 256 256">
<path
  d="M256,57.6l0,140.8c0,31.79 -25.81,57.6 -57.6,57.6l-140.8,0c-31.79,0 -57.6,-25.81 -57.6,-57.6l0,-140.8c0,-31.79 25.81,-57.6 57.6,-57.6l140.8,0c31.79,0 57.6,25.81 57.6,57.6Zm-70.162,45.649c-6.82,0.785 -12.02,6.635 -12,13.5l-0,22.252c-0,1.25 1,1.5 2.5,1.5c1.5,-0 2.5,-0.25 2.5,-1.5l-0,-22.252c-0.083,-4.239 3.051,-7.913 7.25,-8.5c2.269,-0.216 4.529,0.507 6.251,2c1.736,1.51 2.739,3.699 2.75,6c-0.167,1.708 -0.769,3.344 -1.75,4.751c-1.61,2.222 -4.264,3.454 -7.001,3.25c-1,-0 -1.75,-0 -2,2.25c0,1.5 0,2.25 1.25,2.5c2.513,0.244 5.041,-0.279 7.251,-1.5c4.029,-2.051 6.759,-6.006 7.25,-10.501c0.03,-0.358 0.045,-0.718 0.045,-1.078c0,-6.782 -5.328,-12.475 -12.096,-12.922c-0.714,0.205 -1.458,0.29 -2.2,0.25Zm-42.01,-0.25c-13.716,-0 -25.002,11.286 -25.002,25.001c0,13.715 11.286,25.001 25.002,25.001c13.715,0 25.001,-11.286 25.001,-25.001c0,-13.715 -11.286,-25.001 -25.001,-25.001Zm-0,44.752c-0.042,0 -0.083,0 -0.125,0c-10.766,0 -19.626,-8.859 -19.626,-19.626c0,-10.766 8.86,-19.626 19.626,-19.626c10.719,0 19.557,8.782 19.626,19.501c0.002,0.111 0.003,0.222 0.003,0.334c-0,10.652 -8.766,19.417 -19.418,19.417c-0.029,0 -0.058,0 -0.086,0Zm-53.736,-44.752c-13.716,-0 -25.002,11.286 -25.002,25.001c0,13.715 11.286,25.001 25.002,25.001c13.715,0 25.001,-11.286 25.001,-25.001c-0.135,-13.664 -11.337,-24.867 -25.001,-25.001Zm-0,44.752c-0.042,0 -0.083,0 -0.125,0c-10.767,0 -19.626,-8.859 -19.626,-19.626c-0,-10.766 8.859,-19.626 19.626,-19.626c10.719,0 19.557,8.782 19.626,19.501c0,10.741 -8.761,19.615 -19.501,19.751Zm128.498,-31.502l9,-9c0.251,-0.25 1.001,-1 -0.5,-2.75c-0.417,-0.564 -1.052,-0.927 -1.75,-1c-0.39,0.012 -0.756,0.195 -1,0.5l-9,9l-9.001,-9.25c-0.75,-0.75 -1.5,-0.5 -2.75,0.5c-1.25,1 -1.25,2 -0.5,2.75l9.001,9l-9.051,9.251c-0.262,0.276 -0.436,0.624 -0.5,1c0.01,0.716 0.389,1.378 1,1.75c0.493,0.472 1.094,0.815 1.75,1c0.455,-0.049 0.887,-0.222 1.25,-0.5l9.001,-9l9,9c0.244,0.305 0.61,0.488 1,0.5c0.698,-0.073 1.333,-0.436 1.75,-1c0.751,-1 1.001,-2 0.25,-2.5l-8.95,-9.251Zm-171.509,1.75c-4.711,-0.765 -9.532,0.509 -13.251,3.501l0,-13.251l22.501,-0c0.751,-0 1.251,-0.25 1.251,-2.5c-0,-2.25 -1,-2.25 -1.501,-2.25l-24.751,-0c-1.234,-0 -2.25,1.015 -2.25,2.25l0,22.001c0,1.25 0.75,1.5 2,1.75c0.776,0.352 1.697,0.148 2.25,-0.5c2.844,-4.025 7.582,-6.299 12.501,-6c5.778,0.721 10.4,5.24 11.251,11c0.779,6.847 -4.164,13.139 -11.001,14.001l-1.5,0c-5.229,-0.074 -9.906,-3.357 -11.751,-8.25c-0.25,-0.75 -0.75,-1.25 -2.75,-0.5c-2,0.75 -2.25,1.25 -2,2c3.365,8.988 13.451,13.695 22.501,10.5c8.989,-3.365 13.696,-13.45 10.501,-22.501c-2.237,-6.033 -7.628,-10.365 -14.001,-11.251Z"
/>
</svg>
