<svg xmlns="http://www.w3.org/2000/svg" viewBox="0 0 256 256">
  <path d="M149.135,21.135c-7.124,0 -14.723,0.95 -21.372,1.9c-7.125,-1.425 -14.249,-1.9 -21.373,-1.9c-58.895,0 -106.39,47.971 -106.39,106.865c0,58.894 47.97,106.865 106.865,106.865c7.124,-0 14.248,-0.95 21.372,-2.375c7.125,1.425 14.249,2.375 21.373,2.375c58.42,-0 106.39,-47.971 106.39,-106.865c-0.475,-58.894 -47.97,-106.865 -106.865,-106.865m-106.864,106.865c-0,-51.77 36.571,-94.516 85.492,-104.49l-0,208.98c-48.921,-9.974 -85.492,-53.195 -85.492,-104.49m106.864,103.54c-4.749,-0 -9.499,-0.475 -13.773,-0.95c44.645,-12.824 77.892,-53.67 77.892,-102.59c0,-48.92 -32.772,-90.241 -77.892,-102.59c4.749,-0.475 9.499,-0.95 13.773,-0.95c56.995,0 103.065,46.546 103.065,103.54c0.475,56.994 -46.07,103.54 -103.065,103.54"/>
</svg>
