<svg xmlns="http://www.w3.org/2000/svg" viewBox="0 0 256 256">
  <path d="M51.248,76.793c0,-42.127 34.665,-76.793 76.792,-76.793c42.127,0 76.791,34.666 76.791,76.793l-4.623,-0c0,-39.591 -32.577,-72.17 -72.168,-72.17c-39.591,0 -72.169,32.579 -72.169,72.17l-4.623,-0Zm123.533,60.963c-27.487,21.039 -65.956,21.039 -93.443,-0c-0.751,-2.433 -1.301,-4.922 -1.646,-7.445c27.312,24.737 69.423,24.737 96.735,-0c-0.345,2.523 -0.895,5.012 -1.646,7.445m-109.703,-60.963c0,-34.465 28.36,-62.825 62.825,-62.825c34.465,0 62.824,28.36 62.824,62.825l-6.817,-0c-0.797,-30.081 -25.76,-54.391 -55.851,-54.391c-30.091,0 -55.054,24.31 -55.85,54.391l-7.131,-0Zm62.688,62.686c-18.727,0.02 -36.511,-8.354 -48.427,-22.802c0.41,-3.033 1.092,-6.022 2.037,-8.933c10.355,15.461 27.782,24.764 46.39,24.764c18.608,0 36.033,-9.303 46.388,-24.764c0.976,2.905 1.672,5.896 2.077,8.933c-11.925,14.458 -29.724,22.833 -48.465,22.802m43.097,-39.57c-8.521,15.765 -25.06,25.624 -42.979,25.624c-17.921,-0 -34.46,-9.859 -42.981,-25.624c6.013,-11.07 16.064,-19.408 28.053,-23.274l-33.577,0c-0,-26.866 22.108,-48.974 48.974,-48.974c26.867,0 48.974,22.108 48.974,48.974l-34.321,0c11.985,3.857 22.026,12.199 28.013,23.274"/>
  <path d="M174.428,107.901c-0.904,-2.701 -2.031,-5.322 -3.369,-7.836c3.86,-7.149 5.881,-15.148 5.877,-23.272l6.974,-0c0.02,11.082 -3.284,21.921 -9.482,31.108m1.999,22.41c0.625,-4.47 0.625,-9.006 -0,-13.477c9.339,-11.25 14.457,-25.42 14.457,-40.041l9.324,-0c0.028,20.395 -8.626,39.87 -23.781,53.518m-104.218,-53.518l7.17,-0c-0.004,8.124 2.017,16.123 5.877,23.272c-1.34,2.514 -2.466,5.135 -3.37,7.836c-6.199,-9.187 -9.501,-20.026 -9.481,-31.108m-16.534,-0l9.325,-0c-0.022,14.612 5.067,28.781 14.379,40.041c-0.204,2.161 -0.27,4.334 -0.196,6.503c-0.01,2.335 0.16,4.667 0.509,6.974c-15.242,-13.606 -23.985,-33.085 -24.017,-53.518m200.129,-0l-127.96,179.207l-127.961,-179.207l51.169,-0c-0.025,23.884 11.116,46.456 30.09,60.963c6.308,20.439 25.33,34.476 46.721,34.476c21.391,0 40.414,-14.037 46.722,-34.476c18.93,-14.531 30.026,-37.1 29.972,-60.963l51.247,-0Z"/>
</svg>
