
<svg
  xmlns="http://www.w3.org/2000/svg"
  stroke="none"
  fill="white"
  viewBox="0 0 512 512"
>
  <path
    d="M512,128l0,256c0,70.635 -57.365,128 -128,128l-256,0c-70.635,0 -128,-57.365 -128,-128l0,-256c0,-70.635 57.365,-128 128,-128l256,0c70.635,0 128,57.365 128,128Zm-336.875,74.667c-29.248,-0 -53.333,24.085 -53.333,53.333c-0,29.248 24.085,53.333 53.333,53.333c29.27,0 53.334,-24.085 53.334,-53.333c-0.278,-29.141 -24.192,-53.056 -53.334,-53.333Zm0,95.466l-0.256,0c-22.976,0 -41.877,-18.901 -41.877,-41.856c-0,-22.976 18.901,-41.877 41.877,-41.877c22.87,0 41.707,18.731 41.856,41.6c0,22.912 -18.688,41.835 -41.6,42.133Zm-91.754,-63.466c-10.048,-1.622 -20.331,1.088 -28.267,7.466l-0,-28.266l48,-0c1.6,-0 2.667,-0.534 2.667,-5.334c-0,-4.8 -2.134,-4.8 -3.2,-4.8l-52.8,0c-2.624,0 -4.8,2.176 -4.8,4.8l-0,46.934c-0,2.666 1.6,3.2 4.266,3.733c1.664,0.747 3.627,0.32 4.8,-1.067c6.08,-8.576 16.171,-13.44 26.667,-12.8c12.331,1.536 22.187,11.179 24,23.467c1.664,14.613 -8.875,28.032 -23.467,29.867l-3.2,-0c-11.136,-0.15 -21.12,-7.168 -25.066,-17.6c-0.534,-1.6 -1.6,-2.667 -5.867,-1.067c-4.267,1.6 -4.8,2.667 -4.267,4.267c7.19,19.178 28.694,29.205 48,22.4c19.179,-7.168 29.227,-28.694 22.4,-48c-4.757,-12.864 -16.256,-22.102 -29.866,-24Zm206.378,-32c-29.248,-0 -53.333,24.085 -53.333,53.333c-0,29.248 24.085,53.333 53.333,53.333c29.27,0 53.334,-24.085 53.334,-53.333c-0,-29.248 -24.064,-53.333 -53.334,-53.333Zm0.192,95.466l-0.448,0c-22.976,0 -41.856,-18.901 -41.856,-41.856c0,-22.976 18.88,-41.877 41.856,-41.877c22.87,0 41.728,18.731 41.856,41.6c0.022,0.235 0.022,0.469 0.022,0.704c-0,22.741 -18.71,41.429 -41.43,41.429Zm159.296,-67.2l19.2,-19.2c0.534,-0.533 2.134,-2.133 -1.066,-5.866c-0.896,-1.195 -2.24,-1.984 -3.734,-2.134c-0.832,0.022 -1.6,0.427 -2.133,1.067l-19.2,19.2l-19.2,-19.733c-1.6,-1.6 -3.2,-1.067 -5.867,1.066c-2.666,2.134 -2.666,4.267 -1.066,5.867l19.2,19.2l-19.307,19.733c-0.555,0.598 -0.917,1.323 -1.067,2.134c0.022,1.536 0.832,2.944 2.134,3.733c1.045,1.003 2.346,1.728 3.733,2.133c0.981,-0.106 1.899,-0.469 2.667,-1.066l19.2,-19.2l19.2,19.2c0.533,0.64 1.301,1.045 2.133,1.066c1.493,-0.149 2.837,-0.938 3.733,-2.133c1.6,-2.133 2.134,-4.267 0.534,-5.333l-19.094,-19.734Zm-69.866,-27.733c-14.55,1.685 -25.643,14.165 -25.6,28.8l-0,47.467c-0,2.666 2.133,3.2 5.333,3.2c3.2,-0 5.333,-0.534 5.333,-3.2l0,-47.467c-0.17,-9.045 6.507,-16.875 15.467,-18.133c4.843,-0.47 9.664,1.088 13.333,4.266c3.712,3.222 5.846,7.894 5.867,12.8c-0.341,3.648 -1.643,7.126 -3.733,10.134c-3.435,4.736 -9.088,7.36 -14.934,6.933c-2.133,-0 -3.733,-0 -4.266,4.8c-0,3.2 -0,4.8 2.666,5.333c5.355,0.512 10.752,-0.597 15.467,-3.2c8.597,-4.373 14.421,-12.821 15.467,-22.4c0.064,-0.768 0.106,-1.536 0.106,-2.304c0,-14.464 -11.37,-26.602 -25.813,-27.562c-1.515,0.448 -3.115,0.618 -4.693,0.533Z"
  />
</svg>
