<svg xmlns="http://www.w3.org/2000/svg" stroke="none" fill="white" viewBox="0 0 256 256">
  <path d="M118.312,27.081c2.787,-0.231 5.605,-0.348 8.451,-0.348c26.758,0.665 52.734,11.206 71.839,30.069c21.903,21.625 32.459,53.586 28.624,83.981c-0.068,0.546 -0.141,1.093 -0.217,1.642c-7.011,49.069 -49.252,86.842 -100.246,86.842c-38.854,0 -72.627,-21.929 -89.606,-54.075c-0.238,-0.696 -0.49,-1.353 -0.757,-1.964c-13.232,-30.22 -11.553,-67.935 10.214,-93.871c5.429,-6.468 11.901,-11.739 18.968,-16.307c5.947,-3.845 12.879,-6.917 19.759,-8.62c17.825,-4.413 37.029,-1.718 52.094,9.186c14.467,10.472 24.426,27.247 24.143,45.291c-0.095,6.065 -1.024,12.186 -3.588,17.737c-1.937,4.191 -4.402,8.033 -7.627,11.357c-12.637,13.026 -31.81,16.727 -47.98,8.449c-10.973,-5.618 -19.153,-17.451 -16.05,-30.187c0.588,-2.413 1.286,-4.002 2.604,-5.932c0.217,-0.318 0.931,-1.483 1.649,-1.361c0.124,0.021 -0.01,0.256 -0.053,0.374c-0.256,0.69 -0.645,1.331 -0.842,2.039c-0.913,3.28 -0.99,4.706 -0.898,8.134c0.149,5.507 2.833,10.59 7.066,14.106c12.532,10.407 31.652,4.214 39.089,-9.11c2.29,-4.103 3.484,-8.682 3.169,-13.391c-0.68,-10.19 -8.728,-19.215 -18.595,-21.621c-8.434,-2.056 -16.963,-0.67 -24.699,3.147c-3.744,1.847 -7.022,4.189 -9.989,7.127c-16.157,15.997 -13.084,44.455 0.084,61.179c15.395,19.554 44.87,27.217 68.197,19.332c33.853,-11.444 54.613,-50.793 44.456,-85.068c-5.791,-19.541 -20.473,-36.717 -38.142,-46.672c-11.983,-6.75 -24.769,-10.73 -38.447,-12.07c-4.547,-0.446 -10.168,-0.323 -14.726,-0.376c-1.493,-0.018 -4.06,0.161 -4.215,-1.993c-0.155,-2.153 2.888,-3.978 4.605,-4.539c3.786,-1.237 7.705,-2.055 11.666,-2.487Z"/>
</svg>
