<svg xmlns="http://www.w3.org/2000/svg" stroke="white" fill="white" viewBox="0 0 256 256">
  <path d="M111.333,44.217c-45.791,0.246 -83.333,37.99 -83.333,83.782c0,45.963 37.821,83.784 83.784,83.784c45.962,0 83.784,-37.821 83.784,-83.784c-0,-45.792 -37.542,-83.536 -83.334,-83.782l-0.901,-0Zm16.217,165.766c-38.617,-8.141 -66.502,-42.517 -66.502,-81.982c0,-39.466 27.885,-73.842 66.502,-81.982" style="fill-rule:nonzero;stroke-width:1.8px;"/>
  <path d="M143.766,44.217c-45.792,0.246 -83.334,37.99 -83.334,83.782c0,45.963 37.822,83.784 83.784,83.784c45.963,0 83.784,-37.821 83.784,-83.784c0,-45.792 -37.542,-83.536 -83.333,-83.782l-0.901,-0Z" style="fill:none;fill-rule:nonzero;stroke-width:1.8px;"/>
</svg>
