<svg xmlns="http://www.w3.org/2000/svg" stroke="none" fill="white" viewBox="0 0 256 256">
  <path d="M67.988,87.982c-0,-32.922 27.09,-60.013 60.012,-60.013c32.922,0 60.012,27.091 60.012,60.013l-3.613,-0c0,-30.94 -25.459,-56.4 -56.399,-56.4c-30.94,0 -56.399,25.46 -56.399,56.4l-3.613,-0Zm96.54,47.642c-21.481,16.442 -51.544,16.442 -73.025,0c-0.587,-1.901 -1.017,-3.846 -1.286,-5.818c21.344,19.332 54.253,19.332 75.597,0c-0.269,1.972 -0.699,3.917 -1.286,5.818m-85.732,-47.642c0,-26.934 22.163,-49.097 49.097,-49.097c26.934,-0 49.097,22.163 49.097,49.097l-5.328,-0c-0.623,-23.508 -20.131,-42.506 -43.647,-42.506c-23.516,-0 -43.024,18.998 -43.646,42.506l-5.573,-0Zm48.99,48.989c-14.635,0.015 -28.533,-6.529 -37.845,-17.82c0.32,-2.37 0.853,-4.706 1.592,-6.981c8.092,12.083 21.711,19.353 36.253,19.353c14.542,-0 28.16,-7.27 36.252,-19.353c0.763,2.27 1.307,4.608 1.623,6.981c-9.319,11.299 -23.229,17.844 -37.875,17.82m33.68,-30.924c-6.659,12.32 -19.584,20.025 -33.588,20.025c-14.005,0 -26.93,-7.705 -33.589,-20.025c4.699,-8.651 12.554,-15.167 21.923,-18.188l-26.24,0c-0,-20.996 17.277,-38.273 38.273,-38.273c20.996,0 38.273,17.277 38.273,38.273l-26.822,0c9.366,3.014 17.213,9.533 21.892,18.188" style="fill-rule:nonzero;"/>
  <path d="M164.252,112.293c-0.706,-2.111 -1.587,-4.159 -2.633,-6.124c3.017,-5.587 4.596,-11.838 4.593,-18.187l5.45,-0c0.016,8.661 -2.566,17.131 -7.41,24.311m1.562,17.513c0.489,-3.493 0.489,-7.038 -0,-10.532c7.299,-8.792 11.298,-19.866 11.298,-31.292l7.287,-0c0.022,15.939 -6.741,31.158 -18.585,41.824m-81.445,-41.824l5.603,-0c-0.003,6.349 1.576,12.6 4.593,18.187c-1.047,1.965 -1.927,4.013 -2.634,6.124c-4.844,-7.18 -7.425,-15.65 -7.409,-24.311m-12.921,-0l7.287,-0c-0.017,11.419 3.96,22.492 11.237,31.292c-0.159,1.689 -0.211,3.387 -0.153,5.082c-0.008,1.825 0.125,3.647 0.398,5.45c-11.912,-10.633 -18.744,-25.856 -18.769,-41.824m156.399,-0l-100,140.049l-100,-140.049l39.988,-0c-0.02,18.665 8.687,36.305 23.515,47.642c4.93,15.973 19.795,26.943 36.512,26.943c16.717,0 31.583,-10.97 36.513,-26.943c14.794,-11.356 23.465,-28.993 23.423,-47.642l40.049,-0Z" style="fill-rule:nonzero;"/>
</svg>
