<svg xmlns="http://www.w3.org/2000/svg" stroke="none" fill="white" viewBox="0 0 256 256">
  <path d="M226.821,112.291l-1.028,-4.364l-94.853,0l-0,40.146l56.673,-0c-5.884,27.941 -33.188,42.648 -55.49,42.648c-16.228,0 -33.333,-6.826 -44.655,-17.797c-12.06,-11.873 -18.908,-28.074 -19.022,-44.997c-0,-16.91 7.6,-33.825 18.658,-44.951c11.058,-11.126 27.758,-17.351 44.364,-17.351c19.017,-0 32.646,10.097 37.742,14.703l28.528,-28.378c-8.368,-7.354 -31.358,-25.884 -67.19,-25.884c-27.645,-0 -54.152,10.589 -73.529,29.902c-19.121,19.017 -29.019,46.517 -29.019,72.032c0,25.515 9.365,51.641 27.895,70.808c19.8,20.441 47.841,31.126 76.715,31.126c26.271,0 51.172,-10.293 68.919,-28.969c17.447,-18.385 26.471,-43.823 26.471,-70.489c-0,-11.227 -1.129,-17.894 -1.179,-18.185Z" />
</svg>
