<svg xmlns="http://www.w3.org/2000/svg" xmlns:xlink="http://www.w3.org/1999/xlink" x="0px" y="0px"
     viewBox="0 0 512 512" style="enable-background:new 0 0 512 512;" xml:space="preserve">
    <path d="m112.46875 95.332031v-95.332031h-1.070312c-3.976563 0-7.792969 1.582031-10.605469 4.394531l-96.398438 96.398438c-2.8125 2.8125-4.394531 6.628906-4.394531 10.605469v1.070312h95.335938c9.445312 0 17.132812-7.6875 17.132812-17.136719zm0 0"/>
    <path d="m135.515625 238.867188c-14.078125 0-25.183594 11.390624-25.183594 25.148437v41.25h50.335938v-41.25c0-13.878906-11.234375-25.148437-25.152344-25.148437zm0 0"/>
    <path d="m336.335938 0h-193.867188v95.332031c0 25.988281-21.144531 47.132813-47.132812 47.132813h-95.335938v322.402344c0 25.988281 21.144531 47.132812 47.132812 47.132812h289.203126c25.914062 0 47.132812-20.953125 47.132812-47.132812v-417.734376c0-25.914062-20.953125-47.132812-47.132812-47.132812zm-145.667969 384.53125c0 8.285156-6.714844 15-15 15-8.285157 0-15-6.714844-15-15v-49.265625h-50.332031v49.265625c0 8.285156-6.71875 15-15 15-8.285157 0-15-6.714844-15-15v-120.515625c0-30.507813 24.691406-55.148437 55.148437-55.148437 30.824219 0 55.183594 24.984374 55.183594 55.148437zm112.464843 0c0 8.285156-6.714843 15-15 15h-31.730468c-26.292969 0-47.535156-21.28125-47.535156-47.535156 0-25.898438 20.953124-46.730469 46.714843-46.730469h17.550781v-1.066406c0-9.445313-7.6875-17.132813-17.132812-17.132813h-24.992188c-8.285156 0-15-6.714844-15-15s6.714844-15 15-15h24.992188c25.988281 0 47.132812 21.144532 47.132812 47.132813zm0 0"/>
    <path d="m238.867188 351.980469c0 9.621093 7.761718 17.550781 17.535156 17.550781h16.730468v-34.265625h-17.550781c-9.226562 0-16.714843 7.457031-16.714843 16.714844zm0 0"/>
</svg>
