<svg xmlns="http://www.w3.org/2000/svg" xmlns:xlink="http://www.w3.org/1999/xlink">

<svg id="dark" viewBox="0 0 511 511.99982" fill-rule="evenodd" clip-rule="evenodd" stroke-linejoin="round" stroke-miterlimit="1.414">
  <path d="m334.28125 5.109375c-5.625 5.230469-7.558594 13.277344-4.921875 20.496094 9.371094 25.648437 14.125 52.75 14.125 80.554687 0 63.273438-24.640625 122.765625-69.378906 167.519532-44.746094 44.761718-104.253907 69.410156-167.550781 69.410156-27.738282 0-54.804688-4.75-80.449219-14.125-7.214844-2.636719-15.257813-.707032-20.492188 4.921875-5.234375 5.628906-6.582031 13.796875-3.425781 20.808593 20.492188 45.566407 53.339844 84.402344 94.984375 112.304688 42.679687 28.59375 92.480469 44.140625 144.027344 44.964844 36.664062.585937 72.347656-6.21875 106.058593-20.222656 32.480469-13.492188 61.652344-33.019532 86.703126-58.035157 25.046874-25.015625 44.609374-54.15625 58.148437-86.617187 13.535156-32.464844 20.390625-66.769532 20.386719-102.027344 0-1.328125-.007813-2.664062-.027344-3.996094-.753906-51.605468-16.292969-101.492187-44.929688-144.257812-27.929687-41.707032-66.816406-74.601563-112.449218-95.121094-7.011719-3.15625-15.179688-1.8125-20.808594 3.421875zm0 0"/>
</svg>

<svg id="light" viewBox="0 0 512 512" fill-rule="evenodd" clip-rule="evenodd" stroke-linejoin="round" stroke-miterlimit="1.414">
  <g>
    <path d="m507.669 245.457-32.647-33.036 17.571-43c3.113-7.619-.495-16.324-8.085-19.507l-42.833-17.961-.257-46.442c-.046-8.219-6.697-14.87-14.916-14.917l-46.444-.261-17.963-42.836c-3.183-7.59-11.888-11.2-19.506-8.085l-43.007 17.568-33.039-32.648c-5.842-5.775-15.243-5.775-21.087 0l-33.036 32.647-43-17.571c-7.619-3.114-16.324.496-19.507 8.085l-17.961 42.833-46.442.257c-8.219.046-14.87 6.697-14.917 14.916l-.261 46.444-42.836 17.963c-7.59 3.183-11.197 11.887-8.085 19.506l17.568 43.007-32.648 33.039c-5.774 5.843-5.774 15.243 0 21.087l32.647 33.036-17.571 43c-3.113 7.619.495 16.324 8.085 19.507l42.833 17.961.257 46.442c.046 8.219 6.697 14.87 14.916 14.917l46.444.261 17.963 42.836c3.183 7.589 11.885 11.198 19.506 8.085l43.007-17.568 33.039 32.648c2.921 2.887 6.733 4.33 10.543 4.33s7.622-1.443 10.544-4.331l33.036-32.647 43 17.571c7.62 3.114 16.323-.495 19.507-8.085l17.961-42.833 46.442-.257c8.219-.046 14.87-6.697 14.917-14.916l.261-46.444 42.836-17.963c7.59-3.183 11.197-11.887 8.085-19.506l-17.568-43.007 32.648-33.039c5.775-5.842 5.775-15.243 0-21.086zm-251.669 175.543c-90.981 0-165-74.019-165-165s74.019-165 165-165 165 74.019 165 165-74.018 165-165 165z"/>
    <circle cx="256" cy="256" r="135"/>
  </g>
</svg>

<symbol id="linkedin" fill-rule="evenodd" clip-rule="evenodd" stroke-linejoin="round" stroke-miterlimit="1.414">
  <path d="M13.632 13.635h-2.37V9.922c0-.886-.018-2.025-1.234-2.025-1.235 0-1.424.964-1.424 1.96v3.778h-2.37V6H8.51v1.04h.03c.318-.6 1.092-1.233 2.247-1.233 2.4 0 2.845 1.58 2.845 3.637v4.188zM3.558 4.955c-.762 0-1.376-.617-1.376-1.377 0-.758.614-1.375 1.376-1.375.76 0 1.376.617 1.376 1.375 0 .76-.617 1.377-1.376 1.377zm1.188 8.68H2.37V6h2.376v7.635zM14.816 0H1.18C.528 0 0 .516 0 1.153v13.694C0 15.484.528 16 1.18 16h13.635c.652 0 1.185-.516 1.185-1.153V1.153C16 .516 15.467 0 14.815 0z" fill-rule="nonzero"/>
</symbol>

<symbol id="github" fill-rule="evenodd" clip-rule="evenodd" stroke-linejoin="round" stroke-miterlimit="1.414">
  <path d="M8 0C3.58 0 0 3.582 0 8c0 3.535 2.292 6.533 5.47 7.59.4.075.547-.172.547-.385 0-.19-.007-.693-.01-1.36-2.226.483-2.695-1.073-2.695-1.073-.364-.924-.89-1.17-.89-1.17-.725-.496.056-.486.056-.486.803.056 1.225.824 1.225.824.714 1.223 1.873.87 2.33.665.072-.517.278-.87.507-1.07-1.777-.2-3.644-.888-3.644-3.953 0-.873.31-1.587.823-2.147-.09-.202-.36-1.015.07-2.117 0 0 .67-.215 2.2.82.64-.178 1.32-.266 2-.27.68.004 1.36.092 2 .27 1.52-1.035 2.19-.82 2.19-.82.43 1.102.16 1.915.08 2.117.51.56.82 1.274.82 2.147 0 3.073-1.87 3.75-3.65 3.947.28.24.54.73.54 1.48 0 1.07-.01 1.93-.01 2.19 0 .21.14.46.55.38C13.71 14.53 16 11.53 16 8c0-4.418-3.582-8-8-8"/>
</symbol>

<symbol id="stackoverflow" fill-rule="evenodd" clip-rule="evenodd" stroke-linejoin="round" stroke-miterlimit="1.414">
  <path d="M12.658 14.577v-4.27h1.423V16H1.23v-5.693h1.42v4.27h10.006zm-8.583-1.423h7.16V11.73h-7.16v1.424zm.173-3.235l6.987 1.46.3-1.38L4.55 8.54l-.302 1.38zm.906-3.37l6.47 3.02.602-1.3-6.47-3.02-.602 1.29zm1.81-3.19l5.478 4.57.906-1.08L7.87 2.28l-.9 1.078zM10.502 0L9.338.863l4.27 5.735 1.164-.862L10.5 0z"/>
</symbol>

<symbol id="twitter" fill-rule="evenodd" clip-rule="evenodd" stroke-linejoin="round" stroke-miterlimit="1.414">
  <path d="M16 3.038c-.59.26-1.22.437-1.885.517.677-.407 1.198-1.05 1.443-1.816-.634.37-1.337.64-2.085.79-.598-.64-1.45-1.04-2.396-1.04-1.812 0-3.282 1.47-3.282 3.28 0 .26.03.51.085.75-2.728-.13-5.147-1.44-6.766-3.42C.83 2.58.67 3.14.67 3.75c0 1.14.58 2.143 1.46 2.732-.538-.017-1.045-.165-1.487-.41v.04c0 1.59 1.13 2.918 2.633 3.22-.276.074-.566.114-.865.114-.21 0-.41-.02-.61-.058.42 1.304 1.63 2.253 3.07 2.28-1.12.88-2.54 1.404-4.07 1.404-.26 0-.52-.015-.78-.045 1.46.93 3.18 1.474 5.04 1.474 6.04 0 9.34-5 9.34-9.33 0-.14 0-.28-.01-.42.64-.46 1.2-1.04 1.64-1.7z" fill-rule="nonzero"/>
</symbol>

<symbol id="youtube" fill-rule="evenodd" clip-rule="evenodd" stroke-linejoin="round" stroke-miterlimit="1.414">
  <path d="M0 7.345c0-1.294.16-2.59.16-2.59s.156-1.1.636-1.587c.608-.637 1.408-.617 1.764-.684C3.84 2.36 8 2.324 8 2.324s3.362.004 5.6.166c.314.038.996.04 1.604.678.48.486.636 1.588.636 1.588S16 6.05 16 7.346v1.258c0 1.296-.16 2.59-.16 2.59s-.156 1.102-.636 1.588c-.608.638-1.29.64-1.604.678-2.238.162-5.6.166-5.6.166s-4.16-.037-5.44-.16c-.356-.067-1.156-.047-1.764-.684-.48-.487-.636-1.587-.636-1.587S0 9.9 0 8.605v-1.26zm6.348 2.73V5.58l4.323 2.255-4.32 2.24z"/>
</symbol>

<symbol id="instagram" fill-rule="evenodd" clip-rule="evenodd" stroke-linejoin="round" stroke-miterlimit="1.414">
  <path d="M8 0C5.827 0 5.555.01 4.702.048 3.85.088 3.27.222 2.76.42c-.526.204-.973.478-1.417.923-.445.444-.72.89-.923 1.417-.198.51-.333 1.09-.372 1.942C.008 5.555 0 5.827 0 8s.01 2.445.048 3.298c.04.852.174 1.433.372 1.942.204.526.478.973.923 1.417.444.445.89.72 1.417.923.51.198 1.09.333 1.942.372.853.04 1.125.048 3.298.048s2.445-.01 3.298-.048c.852-.04 1.433-.174 1.942-.372.526-.204.973-.478 1.417-.923.445-.444.72-.89.923-1.417.198-.51.333-1.09.372-1.942.04-.853.048-1.125.048-3.298s-.01-2.445-.048-3.298c-.04-.852-.174-1.433-.372-1.942-.204-.526-.478-.973-.923-1.417-.444-.445-.89-.72-1.417-.923-.51-.198-1.09-.333-1.942-.372C10.445.008 10.173 0 8 0zm0 1.44c2.136 0 2.39.01 3.233.048.78.036 1.203.166 1.485.276.374.145.64.318.92.598.28.28.453.546.598.92.11.282.24.705.276 1.485.038.844.047 1.097.047 3.233s-.01 2.39-.05 3.233c-.04.78-.17 1.203-.28 1.485-.15.374-.32.64-.6.92-.28.28-.55.453-.92.598-.28.11-.71.24-1.49.276-.85.038-1.1.047-3.24.047s-2.39-.01-3.24-.05c-.78-.04-1.21-.17-1.49-.28-.38-.15-.64-.32-.92-.6-.28-.28-.46-.55-.6-.92-.11-.28-.24-.71-.28-1.49-.03-.84-.04-1.1-.04-3.23s.01-2.39.04-3.24c.04-.78.17-1.21.28-1.49.14-.38.32-.64.6-.92.28-.28.54-.46.92-.6.28-.11.7-.24 1.48-.28.85-.03 1.1-.04 3.24-.04zm0 2.452c-2.27 0-4.108 1.84-4.108 4.108 0 2.27 1.84 4.108 4.108 4.108 2.27 0 4.108-1.84 4.108-4.108 0-2.27-1.84-4.108-4.108-4.108zm0 6.775c-1.473 0-2.667-1.194-2.667-2.667 0-1.473 1.194-2.667 2.667-2.667 1.473 0 2.667 1.194 2.667 2.667 0 1.473-1.194 2.667-2.667 2.667zm5.23-6.937c0 .53-.43.96-.96.96s-.96-.43-.96-.96.43-.96.96-.96.96.43.96.96z"/>
</symbol>

<svg id="email" viewBox="0 0 512 512" fill-rule="evenodd" clip-rule="evenodd" stroke-linejoin="round" stroke-miterlimit="1.414">
  <path d="m298.789 313.693c-12.738 8.492-27.534 12.981-42.789 12.981-15.254 0-30.05-4.489-42.788-12.981l-209.803-139.873c-1.164-.776-2.298-1.585-3.409-2.417v229.197c0 26.278 21.325 47.133 47.133 47.133h417.733c26.278 0 47.133-21.325 47.133-47.133v-229.198c-1.113.834-2.249 1.645-3.416 2.422z"/><path d="m20.05 148.858 209.803 139.874c7.942 5.295 17.044 7.942 26.146 7.942 9.103 0 18.206-2.648 26.148-7.942l209.803-139.874c12.555-8.365 20.05-22.365 20.05-37.475 0-25.981-21.137-47.117-47.117-47.117h-417.766c-25.98.001-47.117 21.137-47.117 47.142 0 15.085 7.496 29.085 20.05 37.45z"/>
</svg>

<symbol id="rss" fill-rule="evenodd" clip-rule="evenodd" stroke-linejoin="round" stroke-miterlimit="1.414">
  <path d="M12.8 16C12.8 8.978 7.022 3.2 0 3.2V0c8.777 0 16 7.223 16 16h-3.2zM2.194 11.61c1.21 0 2.195.985 2.195 2.196 0 1.21-.99 2.194-2.2 2.194C.98 16 0 15.017 0 13.806c0-1.21.983-2.195 2.194-2.195zM10.606 16h-3.11c0-4.113-3.383-7.497-7.496-7.497v-3.11c5.818 0 10.606 4.79 10.606 10.607z"/>
</symbol>

</svg>
