<svg xmlns="http://www.w3.org/2000/svg" xmlns:xlink="http://www.w3.org/1999/xlink" x="0px" y="0px"
     viewBox="0 0 512 512" style="enable-background:new 0 0 512 512;" xml:space="preserve">
  <g fill="#5c5cd6">
    <path d="m175.002 315.79-60.916 60.916c-5.859 5.859-15.358 5.859-21.216 0l-24.238-24.238c-5.859-5.859-5.859-15.358 0-21.216l131.308-131.31c5.859-5.859 15.358-5.859 21.216 0l79.276 79.278c20.881-30.828 17.696-73.206-9.588-100.49l-24.237-24.237c-30.911-30.911-81.206-30.911-112.117 0l-131.307 131.309c-30.911 30.91-30.911 81.206 0 112.117l24.236 24.236c30.911 30.911 81.206 30.911 112.117 0l54.039-54.039-13.633-13.633c-11.265-11.264-19.609-24.503-24.94-38.693z"/>
    <path d="m488.817 114.082-24.237-24.237c-30.911-30.911-81.206-30.911-112.117 0l-54.039 54.039 13.633 13.633c11.264 11.264 19.604 24.506 24.937 38.695l60.918-60.918c5.859-5.859 15.358-5.859 21.216 0l24.239 24.239c5.859 5.859 5.859 15.358 0 21.216l-131.308 131.309c-5.859 5.859-15.358 5.859-21.216 0l-79.274-79.278c-20.881 30.828-17.697 73.206 9.587 100.49l24.236 24.236c30.911 30.911 81.206 30.911 112.117 0l131.309-131.308c30.91-30.91 30.91-81.205-.001-112.116z"/>
  </g>
</svg>
