<svg xmlns="http://www.w3.org/2000/svg" xmlns:xlink="http://www.w3.org/1999/xlink" x="0px" y="0px"
     viewBox="0 0 512 512" style="enable-background:new 0 0 512 512;" xml:space="preserve">
  <g fill="#5c5cd6">
    <path d="m464.866 0h-90.889c-25.989 0-47.134 21.145-47.134 47.149 0 19.252 11.608 35.846 28.192 43.148l-212.706 212.708c-18.228 18.217-18.595 48.002-.05 66.59.024.024.048.049.071.071 18.366 18.365 48.257 18.367 66.634 0l212.714-212.714c7.301 16.591 23.9 28.204 43.169 28.204 25.989 0 47.134-21.145 47.134-47.134v-90.888c-.001-25.916-20.954-47.134-47.135-47.134z"/>
    <path d="m464.866 224.934c-25.989 0-47.133 21.144-47.133 47.133v145.667h-323.466v-323.467h145.667c12.598 0 24.435-4.906 33.318-13.802 8.909-8.897 13.815-20.734 13.815-33.331-.001-25.989-21.144-47.134-47.134-47.134h-160.666c-43.708 0-79.267 35.559-79.267 79.267v353.467c0 43.707 35.559 79.266 79.267 79.266h353.467c21.174 0 41.08-8.245 56.051-23.216s23.215-34.877 23.215-56.051v-160.667c0-12.598-4.906-24.436-13.802-33.317-8.897-8.909-20.734-13.815-33.332-13.815z"/>
  </g>
</svg>
