<svg xmlns="http://www.w3.org/2000/svg" xmlns:xlink="http://www.w3.org/1999/xlink" x="0px" y="0px"
     viewBox="0 0 512 512" style="enable-background:new 0 0 512 512;" xml:space="preserve">
  <g fill="#5c5cd6">
    <path d="m256 220.95 9.373-16.234c2.82-4.884.939-9.196 0-10.823s-3.733-5.412-9.373-5.412-8.434 3.784-9.373 5.412c-.939 1.627-2.82 5.938 0 10.823z"/>
    <path d="m153.448 355.285c-.939 1.627-2.82 5.938 0 10.823 2.819 4.884 7.493 5.411 9.372 5.411s6.553-.527 9.373-5.412l9.373-16.233h-18.746c-5.639 0-8.432 3.784-9.372 5.411z"/>
    <path d="m233.527 319.874h44.946l-22.473-38.924z"/>
    <path d="m336 130c-8.284 0-15-6.716-15-15v-115h-215c-24.813 0-45 20.187-45 45v422c0 24.813 20.187 45 45 45h300c24.813 0 45-20.187 45-45v-337zm48.532 251.108c-7.378 12.78-20.594 20.411-35.352 20.411-14.759 0-27.975-7.63-35.354-20.411l-18.033-31.234h-79.586l-18.033 31.234c-7.379 12.78-20.596 20.411-35.354 20.411-.001 0 0 0-.001 0-14.758 0-27.974-7.631-35.352-20.412-7.379-12.78-7.38-28.042 0-40.822 7.379-12.781 20.595-20.411 35.353-20.411h36.066l39.793-68.924-18.033-31.234c-7.379-12.781-7.38-28.042 0-40.823 7.379-12.781 20.595-20.412 35.354-20.412s27.975 7.63 35.354 20.412c7.38 12.781 7.379 28.042 0 40.823l-18.034 31.234 39.793 68.924h36.066c14.758 0 27.974 7.63 35.353 20.411 7.38 12.781 7.379 28.042 0 40.823z"/>
    <path d="m349.18 349.874h-18.746l9.373 16.234c2.82 4.884 7.494 5.411 9.373 5.411s6.553-.527 9.372-5.411c2.82-4.885.939-9.196 0-10.823s-3.733-5.411-9.372-5.411z"/>
    <path d="m351 8.783v91.217h91.211z"/>
  </g>
</svg>
