<svg xmlns="http://www.w3.org/2000/svg" xmlns:xlink="http://www.w3.org/1999/xlink" x="0px" y="0px"
     viewBox="0 0 512 512" style="enable-background:new 0 0 512 512;" xml:space="preserve">
  <g fill="#5c5cd6">
    <path d="m112.46875 95.332031v-95.332031h-1.070312c-3.976563 0-7.792969 1.582031-10.605469 4.394531l-96.398438 96.398438c-2.8125 2.8125-4.394531 6.628906-4.394531 10.605469v1.070312h95.335938c9.445312 0 17.132812-7.6875 17.132812-17.136719zm0 0"/>
    <path d="m191.734375 235.992188 11.90625-20.65625c5.300781-9.183594-1.347656-20.683594-11.90625-20.683594-10.554687 0-17.210937 11.496094-11.914063 20.671875zm0 0"/>
    <path d="m80.046875 388.070312c.082031.140626.15625.277344.234375.417969 5.542969 8.910157 18.527344 8.523438 23.671875-.386719l11.933594-20.703124h-23.925781c-10.554688 0-17.210938 11.496093-11.914063 20.671874zm0 0"/>
    <path d="m291.507812 367.398438h-23.925781l11.9375 20.710937c5.128907 8.886719 18.117188 9.304687 23.667969.378906.074219-.140625.152344-.28125.234375-.417969 5.300781-9.175781-1.359375-20.671874-11.914063-20.671874zm0 0"/>
    <path d="m167.835938 337.398438h47.796874l-23.898437-41.378907zm0 0"/>
    <path d="m336.335938 0h-193.867188v95.332031c0 25.988281-21.144531 47.132813-47.132812 47.132813h-95.335938v322.402344c0 25.988281 21.144531 47.132812 47.132812 47.132812h289.203126c25.914062 0 47.132812-20.953125 47.132812-47.132812v-417.734376c0-25.914062-20.953125-47.132812-47.132812-47.132812zm-6.550782 402.390625c-.121094.242187-.25.476563-.382812.710937-16.867188 29.210938-59.09375 29.058594-75.867188 0l-20.582031-35.703124h-82.4375l-20.578125 35.695312c-16.792969 29.097656-59.023438 29.1875-75.871094.007812-.136718-.238281-.265625-.476562-.390625-.71875-16.140625-29.175781 5.066407-64.984374 38.285157-64.984374h41.226562l41.226562-71.378907-20.578124-35.703125c-16.820313-29.132812 4.296874-65.664062 37.898437-65.664062 33.640625 0 54.699219 36.566406 37.894531 65.671875l-20.574218 35.695312 41.226562 71.378907h41.226562c33.226563 0 54.429688 35.816406 38.277344 64.992187zm0 0"/>
  </g>
</svg>
